<svg xmlns="http://www.w3.org/2000/svg" viewBox="0 0 704.36 201.98"><defs><style>.cls-1{fill:#0b3251;}.cls-2{fill:#0d7b40;}.cls-3{fill:#9ea19f;}.cls-4{fill:#0e3252;}.cls-5{fill:#0a3352;}</style></defs><g id="Layer_2" data-name="Layer 2"><g id="Layer_1-2" data-name="Layer 1"><path class="cls-1" d="M0,64.44a33.17,33.17,0,0,1,5.34,2c41.54,23.93,86.17,39.22,133.31,47.18A576.08,576.08,0,0,0,226,122c.44,0,.88,0,1.32,0,4.34.28,4.66.64,3,4.58-3.62,8.89-7.38,17.74-11.09,26.6-1.69,4-3.36,8.06-5.14,12.05-2.15,4.79-2.4,5.06-7.39,3.81-18.4-4.62-36.95-8.79-55.11-14.25a391.38,391.38,0,0,1-96.49-43.44c-19.9-12.55-38-27.18-53.69-44.81A15.81,15.81,0,0,1,.08,64.35Z"/><path class="cls-2" d="M15.9,86.57c7.86,6.57,15.56,13.35,23.63,19.65a366.48,366.48,0,0,0,79.36,46.89c13.39,5.85,27.22,10.67,40.89,15.87,5.07,1.92,5.28,2,3.08,6.87-3.32,7.37-6.74,14.69-10.18,22-2.29,4.87-2.39,5-7.17,2.71a339.81,339.81,0,0,1-58.66-34.51c-24.4-18.14-45.7-39.32-62.66-64.66-3.13-4.68-5.64-9.77-8.44-14.67Z"/><path class="cls-3" d="M181.77,73.76c0-8.74,0-17.47,0-26.2,0-3.67.44-7.35-2.67-10.39-1.78-1.74-.27-2.65,1.62-2.66q11.14-.06,22.27,0c2.66,0,3.3,1.36,1.32,3.09C201.07,40.41,201,44,201,47.76q.07,27.84,0,55.67c0,6.6-.73,7.15-7.2,6.27-2.38-.32-4.75-.65-7.13-.89-4.78-.48-4.88-.45-4.91-5.58C181.72,93.4,181.77,83.58,181.77,73.76Z"/><path class="cls-3" d="M146.05,71.54c0-8.09-.05-16.19,0-24.28,0-3.58,0-7-3.23-9.5-.6-.46-.79-1.45-1.17-2.19a8.92,8.92,0,0,1,2.81-1c7.22-.09,14.44-.06,21.66,0,2.41,0,3.56,1.1,1.59,3.1-2.44,2.47-2.5,5.39-2.49,8.5q0,25.92,0,51.84c0,1.53-.05,3.07,0,4.6.05,2.42-1,3.78-3.53,3.51-4.34-.47-8.7-.86-13-1.64-2.83-.51-2.64-3.13-2.64-5.3,0-9.19,0-18.38,0-27.57Z"/><path class="cls-3" d="M109.41,68.26c0-7.66.17-15.33-.1-23a16,16,0,0,0-2.21-7.21c-1.49-2.54-1.36-3.58,1.67-3.59,6.79,0,13.57-.11,20.36.05,3.4.08,3.32.71,1.71,3.84a18.35,18.35,0,0,0-2.16,7.85c-.19,16.19-.07,32.39-.11,48.59,0,6-.09,6-5.69,4.89-13.47-2.53-13.47-2.53-13.47-16.33Z"/><path class="cls-3" d="M136.67,23.21h-61c-.85,0-1.7-.08-2.55-.12a20.36,20.36,0,0,1,2.35-.91c19.91-4.94,39.82-9.89,59.77-14.72a11.12,11.12,0,0,1,5.08.27q28.3,6.9,56.57,14a24,24,0,0,1,3.38,1.39c-1.09,0-2.18.1-3.27.1Z"/><path class="cls-3" d="M72.7,62.17c0-5.69.12-11.38-.07-17.06a15,15,0,0,0-1.42-6.19c-2.23-4.38-2.4-4.39,2.26-4.44,6.79-.07,13.57,0,20.35,0,2.4,0,3.69,1.2,1.53,3-3.53,3-3.4,6.81-3.39,10.78,0,12.69.06,25.38,0,38.07,0,5.24-.19,5.3-5.22,3.81-3.13-.93-6.18-2.17-9.34-3-3.5-.94-4.91-2.9-4.75-6.62C72.9,74.43,72.7,68.3,72.7,62.17Z"/><path class="cls-3" d="M137.7,26.52c21,0,42-.06,63,.1,2.16,0,6.24-1.82,6.16,2.4-.06,3.41-3.77,2.08-5.87,2.08q-63.64.13-127.29,0c-2.09,0-5.81,1.33-5.84-2.11,0-4.18,4-2.36,6.2-2.37C95.26,26.46,116.48,26.52,137.7,26.52Z"/><path class="cls-3" d="M137.61,0c1.73.36,3.66.7,5.55,1.17,21.6,5.37,43.21,10.72,64.78,16.2,1.92.49,3.63,1.83,5.44,2.77-1.89,3.26-4.4.86-6.36.4-20.79-5-41.55-10.07-62.26-15.39a29.82,29.82,0,0,0-15.41-.06c-20.91,5.42-41.9,10.56-62.89,15.69-1.64.4-3.49-.07-5.24-.14,1.42-1,2.71-2.61,4.3-3C87.94,11.9,110.39,6.34,132.85.76,134.32.4,135.86.27,137.61,0Z"/><path class="cls-4" d="M27.7,61.72c.48-2.32.55-4.82,1.53-6.9,1.69-3.6.52-5.78-2.57-7.54a6.53,6.53,0,0,1-1.57-1.18c-1.11-1.19-2.15-2.45-3.22-3.67,1.46-.2,2.92-.45,4.39-.59a10.85,10.85,0,0,1,2.61,0c3.45.52,5.32-1,5.95-4.33a12.89,12.89,0,0,1,1-3.11,39.67,39.67,0,0,1,2.1-3.48c.6,1.11,1.27,2.2,1.78,3.35a12.81,12.81,0,0,1,1.05,3.09c.57,3.4,2.47,4.91,5.91,4.47a4.79,4.79,0,0,1,1.31,0c2,.28,4,.6,6,.9-1.41,1.3-2.72,2.71-4.24,3.86-4.89,3.7-4.91,3.66-3,9.46.47,1.45.94,2.9,1.35,4.37a4.25,4.25,0,0,1,0,1.23c-.57,0-1.24.11-1.69-.15-3.13-1.76-6.21-5-9.32-5-2.91,0-5.83,3.33-8.77,5.18-.14.09-.42,0-.64,0Z"/><path class="cls-5" d="M277.56,129.64l-4.76,34.05h-16L275.89,46h22.36l19.88,117.71H301.62l-5.23-34.05Zm16.91-14.51c-3.29-22.49-6-41.91-7.27-54.3h-.6c-.48,9.44-4.3,35.19-7,54.3Z"/><path class="cls-5" d="M341.32,129.68v7.08c0,9.74,3.13,15.06,10.6,15.06,7.64,0,10.11-6.45,10.11-16.3,0-13.13-2.86-17.66-15.39-27.49S327.4,91.89,327.4,74.49c0-15.26,4.6-30.35,24.68-30.3s23.85,13.94,23.85,27.62v5.94H360.27V72.24c0-8.86-1.61-14.39-8.49-14.39s-8.59,5.95-8.59,14.35c0,9.42,1.83,13.53,12.36,21.35,17.08,12.74,22.39,20,22.39,39.65,0,16.64-5.38,32.15-26.46,32.15-20.61,0-26-13.27-26-28.78v-6.89Z"/><path class="cls-5" d="M405.31,129.64l-4.75,34.05h-16L403.65,46H426l19.88,117.71H429.38l-5.23-34.05Zm16.92-14.51c-3.3-22.49-6-41.91-7.28-54.3h-.6c-.47,9.44-4.3,35.19-7,54.3Z"/><path class="cls-5" d="M455.12,46h24.22c18.19,0,27.22,9.07,27.22,29.13v7c0,18.7-6.24,31.67-28.17,31.67h-7.48v49.88H455.12Zm15.79,54.8h5.82c12.18,0,14.11-7.28,14.11-19.08v-6c0-9-1.77-16.56-12.71-16.56h-7.22Z"/><path class="cls-5" d="M499.92,163.69V138.35H515.7v25.34Z"/><path class="cls-5" d="M578,160c0,19.37-2,35.58-26.48,35.58-20.45,0-24-13.18-24-23.14V172h15.84v.46c0,3.3,1.23,9.93,9,9.93,8.26,0,9.85-6.26,9.85-18.36V153.42c-2.35,5.49-7.3,8.79-15.09,8.79-15.39,0-19.72-11.69-19.72-28.11V99c0-13.82,5.58-27.28,21.61-27.28,9.43,0,13.46,4.56,14.89,9.36a55,55,0,0,1,.77-8h13.67c-.17,5.34-.35,13.11-.35,23.14ZM543.28,99.9v33c0,10.22,2.51,15.31,8.79,15.31,8.78,0,10.23-7.84,10.23-19.39V102.19c0-8.84-.92-16.24-9.19-16.24C546.5,86,543.28,90.49,543.28,99.9Z"/><path class="cls-5" d="M641.88,100v36.11c0,19.5-9.5,28.95-25.53,28.95-16.41,0-25.12-9.54-25.12-28.69V99.48c0-18.71,10.33-27.78,25.65-27.78C632.79,71.7,641.88,81.71,641.88,100Zm-34.81-.76V137c0,8.38,2.67,14.12,9.58,14.12,6.45,0,9.39-4.62,9.39-14.37V99.16c0-7.78-2.33-13.44-9.46-13.44C610,85.72,607.07,90.49,607.07,99.28Z"/><path class="cls-5" d="M665,73.11c2.83,16.73,9.19,54.14,11.39,72.89h.18c1.55-17.7,9.09-55.12,11.92-72.89h15.84L685,163.69H667.11l-19-90.58Z"/></g></g></svg>