<svg id="Layer_1" data-name="Layer 1" xmlns="http://www.w3.org/2000/svg" width="1536" height="1536" viewBox="0 0 1536 1536"><path d="M1412,734q0-28-18-46l-91-90q-19-19-45-19t-45,19L805,1005,579,779q-19-19-45-19t-45,19l-91,90q-18,18-18,46,0,27,18,45l362,362q19,19,45,19,27,0,46-19l543-543Q1412,761,1412,734Zm252,162q0,209-103,385.5T1281.5,1561Q1105,1664,896,1664T510.5,1561Q334,1458,231,1281.5T128,896q0-209,103-385.5T510.5,231Q687,128,896,128t385.5,103Q1458,334,1561,510.5T1664,896Z" transform="translate(-128 -128)" fill="#00a91c"/></svg>