<?xml version="1.0" standalone="no"?>
<!DOCTYPE svg PUBLIC "-//W3C//DTD SVG 20010904//EN"
 "http://www.w3.org/TR/2001/REC-SVG-20010904/DTD/svg10.dtd">
<svg version="1.0" xmlns="http://www.w3.org/2000/svg"
 width="1184.000000pt" height="1184.000000pt" viewBox="0 0 1184.000000 1184.000000"
 preserveAspectRatio="xMidYMid meet">
<metadata>
Created by potrace 1.11, written by Peter Selinger 2001-2013
</metadata>
<g transform="translate(0.000000,1184.000000) scale(0.100000,-0.100000)"
fill="#000000" stroke="none">
<path d="M1698 10185 c-1 -36 -1 -65 2 -65 3 0 3 -28 0 -62 -3 -35 -3 -130 0
-211 3 -82 2 -151 -1 -153 -4 -2 -3 -20 1 -39 4 -19 5 -37 1 -39 -3 -2 -4 -93
-1 -201 3 -108 2 -199 -1 -201 -4 -2 -3 -20 1 -39 4 -19 5 -37 1 -39 -3 -2 -4
-93 -1 -201 3 -108 2 -199 -1 -201 -4 -2 -3 -20 1 -39 4 -19 4 -37 0 -40 -4
-3 -4 -21 0 -40 4 -19 4 -37 0 -40 -4 -3 -4 -21 0 -40 4 -19 5 -37 1 -39 -3
-2 -4 -93 -1 -201 3 -108 2 -199 -1 -201 -4 -2 -3 -20 1 -39 4 -19 5 -37 1
-39 -3 -2 -4 -237 -1 -521 3 -284 2 -519 -1 -521 -4 -2 -3 -20 1 -39 4 -19 5
-37 1 -39 -3 -2 -4 -93 -1 -201 3 -108 2 -199 -1 -201 -4 -2 -3 -20 1 -39 4
-19 5 -37 1 -39 -3 -2 -4 -237 -1 -521 3 -284 2 -519 -1 -521 -4 -2 -3 -19 1
-38 4 -19 6 -36 5 -38 -2 -2 -6 -278 -10 -613 -3 -336 -8 -711 -10 -835 -6
-283 -14 -740 -20 -1110 -2 -157 -4 -285 -5 -285 0 0 -3 -157 -6 -350 -3 -192
-6 -389 -7 -437 -1 -49 0 -88 4 -88 3 0 49 45 104 100 54 55 101 100 104 101
3 1 38 36 76 79 39 43 72 78 75 79 7 1 290 283 291 291 1 3 54 55 119 115 65
61 118 112 119 115 1 5 273 280 276 280 3 0 205 205 206 209 1 4 73 74 159
156 86 83 158 152 159 155 1 7 274 280 281 281 3 1 73 73 155 159 83 86 152
158 155 159 8 2 290 284 290 291 1 3 19 19 40 35 21 17 39 32 40 35 0 3 66 71
146 151 l145 146 -6 -391 c-3 -215 -8 -535 -11 -711 -3 -176 -6 -400 -7 -497
-1 -98 -5 -178 -9 -178 -3 0 -5 -8 -3 -17 2 -10 4 -18 5 -18 6 0 4 -57 -2 -61
-5 -3 -4 -13 2 -23 5 -10 7 -21 4 -24 -3 -3 -7 -146 -10 -318 -2 -173 -6 -401
-8 -506 -2 -106 -1 -193 1 -193 3 0 665 659 1470 1465 806 806 1468 1465 1472
1465 7 0 6 -99 -3 -670 -3 -162 -7 -432 -10 -600 -3 -168 -8 -456 -11 -640
-12 -633 -17 -942 -16 -1001 1 -21 295 268 1698 1670 1174 1173 1693 1697
1681 1699 -10 2 -18 7 -18 11 0 3 149 153 331 331 182 179 414 407 516 506
l184 181 -82 79 c-44 44 -180 176 -300 294 -121 118 -219 215 -219 214 0 0
-87 85 -194 190 -106 105 -229 226 -273 268 -44 43 -78 80 -75 83 3 3 1 5 -4
5 -10 0 -91 79 -837 812 -181 178 -392 385 -470 462 -78 76 -315 308 -527 516
-212 208 -446 438 -520 510 -74 73 -291 286 -482 474 -192 187 -351 342 -356
344 -4 1 -7 -634 -7 -1412 l0 -1415 -25 22 c-13 12 -63 60 -111 107 -363 356
-852 836 -1065 1045 -140 138 -254 250 -254 249 0 0 -94 92 -209 205 -214 211
-781 767 -1065 1045 -88 86 -162 156 -165 156 -3 0 -6 -637 -6 -1415 1 -778 0
-1415 0 -1415 -1 0 -233 227 -755 740 -193 190 -427 419 -520 510 -93 91 -334
328 -537 527 -202 199 -456 448 -563 553 -107 105 -266 261 -352 345 -87 85
-159 155 -162 155 -2 0 -6 -29 -8 -65z"/>
</g>
</svg>
