<?xml version="1.0" encoding="UTF-8"?>
<svg id="Layer_2" data-name="Layer 2" xmlns="http://www.w3.org/2000/svg" viewBox="0 0 83.46 74.49">
  <defs>
    <style>
      .cls-1 {
        fill: #fff;
      }
    </style>
  </defs>
  <g id="Layer_1-2" data-name="Layer 1">
    <rect class="cls-1" x="11.06" y="59.91" width="39.39" height="2.46"/>
    <g>
      <g>
        <path class="cls-1" d="m55.56,50.23v20.09l-50.99-.31.13-54.92-4.7,3.19v56.21h60.45l.49-28.07-5.37,3.81Z"/>
        <path class="cls-1" d="m55.56,27.92l4.78-4.1.11-23.82H18.29l-3.16,4.56,40.44-.15v23.51Z"/>
      </g>
      <polygon class="cls-1" points="0 18.28 0 23.59 23.3 23.59 23.3 0 18.29 0 12.54 5.74 5.75 12.53 0 18.28"/>
    </g>
    <g>
      <path class="cls-1" d="m68.68,41.41c-.54-.7-.41-1.71.3-2.25l10.54-8.1-1.25-4.54c-.24-.86.27-1.74,1.12-1.98.86-.24,1.74.27,1.98,1.12l1.54,5.59c.17.63-.05,1.3-.57,1.7l-11.4,8.76c-.7.54-1.71.41-2.25-.3Z"/>
      <polygon class="cls-1" points="43.14 41.55 37.27 53.21 50.05 50.54 43.14 41.55"/>
      <g>
        <polyline class="cls-1" points="45.27 39.91 52.18 48.91 65.86 38.4 58.95 29.4 58.95 29.4"/>
        <path class="cls-1" d="m61.07,27.77l6.91,9,13.51-10.38c2.31-1.77,2.63-5.22.72-7.71-1.91-2.48-5.32-3.06-7.63-1.29l-13.51,10.38h0Z"/>
      </g>
    </g>
    <g>
      <rect class="cls-1" x="11.5" y="52.7" width="9.4" height="2.81" transform="translate(43 4.39) rotate(45)"/>
      <rect class="cls-1" x="11.5" y="52.7" width="9.4" height="2.81" transform="translate(65.91 80.91) rotate(135)"/>
    </g>
  </g>
</svg>