<?xml version="1.0" encoding="UTF-8"?>
<svg id="Layer_2" data-name="Layer 2" xmlns="http://www.w3.org/2000/svg" viewBox="0 0 75.49 43.75">
  <defs>
    <style>
      .cls-1 {
        fill: #fff;
      }
    </style>
  </defs>
  <g id="Layer_1-2" data-name="Layer 1">
    <g>
      <path class="cls-1" d="m0,0v43.75h75.49V0H0Zm69.82,38.08H5.67V5.67h64.15v32.41Z"/>
      <path class="cls-1" d="m17.78,43.75C17.78,34.37,9.82,26.76,0,26.76v16.99h17.78Z"/>
      <path class="cls-1" d="m57.7,43.75c0-9.38,7.96-16.99,17.78-16.99v16.99h-17.78Z"/>
      <path class="cls-1" d="m17.78,0C17.78,9.38,9.82,16.99,0,16.99V0h17.78Z"/>
      <path class="cls-1" d="m57.7,0c0,9.38,7.96,16.99,17.78,16.99V0h-17.78Z"/>
      <path class="cls-1" d="m39.22,19.32c-2-.84-2.95-1.33-2.95-2.18,0-1.2,1.41-1.29,1.84-1.29,1.34,0,1.96.35,2.94,1.2l.97.84,3.23-3.11-1.09-1.02c-.88-.81-2.08-1.75-3.92-2.18v-2.87h-4.53v2.94c-2.74.76-4.51,2.89-4.51,5.58,0,3.68,3.17,5.06,5.48,6.08,2.25.99,3.31,1.58,3.31,2.74,0,.41,0,1.49-2.23,1.49-1.35,0-2.66-.5-3.99-1.52l-1.09-.84-2.84,3.52,1.1.89c1.31,1.05,3.02,1.83,4.77,2.2v2.85h4.53v-2.92c2.97-.77,4.82-2.95,4.82-5.81,0-4.13-3.38-5.56-5.85-6.59Z"/>
    </g>
  </g>
</svg>