<?xml version="1.0" encoding="UTF-8"?>
<svg id="Layer_2" data-name="Layer 2" xmlns="http://www.w3.org/2000/svg" viewBox="0 0 81.8 68.17">
  <defs>
    <style>
      .cls-1 {
        fill: #fff;
      }
    </style>
  </defs>
  <g id="Layer_1-2" data-name="Layer 1">
    <g>
      <path class="cls-1" d="m57.19,65.83c-1.08-.41-2.46-.94-3.52-2.63-.76-1.21-1.59-3.97-1.46-8.66h-22.6c.13,4.69-.71,7.45-1.46,8.66-1.05,1.69-2.44,2.23-3.52,2.63-1.11.42-.83,2.34-.24,2.34h33.05c.59,0,.87-1.92-.24-2.34Z"/>
      <path class="cls-1" d="m80.02,0H1.79C.8,0,0,.81,0,1.82v51.79c0,1,.8,1.82,1.79,1.82h78.23c.99,0,1.79-.81,1.79-1.82V1.82c0-1-.8-1.82-1.79-1.82Zm-4.39,49.24H6.18V6.18h69.44v43.06Z"/>
    </g>
    <g>
      <path class="cls-1" d="m48.62,25.12h-3.31v-4.62c0-2.43-1.98-4.41-4.41-4.41s-4.41,1.98-4.41,4.41v4.62h-3.31v-4.62c0-4.26,3.46-7.72,7.72-7.72s7.72,3.46,7.72,7.72v4.62Z"/>
      <path class="cls-1" d="m30.49,23.81v14.58h20.83v-14.58h-20.83Zm12.07,11.15h-3.31l.6-3.75c-.64-.37-1.07-1.05-1.07-1.85,0-1.17.95-2.13,2.13-2.13s2.13.95,2.13,2.13c0,.79-.43,1.48-1.07,1.85l.6,3.75Z"/>
    </g>
  </g>
</svg>