<?xml version="1.0" encoding="UTF-8"?>
<svg id="Layer_2" data-name="Layer 2" xmlns="http://www.w3.org/2000/svg" viewBox="0 0 71.13 56.58">
  <defs>
    <style>
      .cls-1 {
        fill: #fff;
      }
    </style>
  </defs>
  <g id="Layer_1-2" data-name="Layer 1">
    <path class="cls-1" d="m2.68,0h17.13v7.32c0,1.88-1.53,3.41-3.41,3.41H6.09c-1.88,0-3.41-1.53-3.41-3.41V0h0Z" transform="translate(22.49 10.73) rotate(180)"/>
    <path class="cls-1" d="m2.68,4.59h65.77v6.14H8.82c-3.39,0-6.14-2.75-6.14-6.14h0Z" transform="translate(71.13 15.32) rotate(180)"/>
    <path class="cls-1" d="m68.56,13.03H2.57c-1.42,0-2.57.98-2.57,2.18l3.67,39.11c0,1.21,1.72,2.25,3.14,2.25h57.3c1.42,0,3.57-1.44,3.57-2.64l3.45-38.72c0-1.21-1.15-2.18-2.57-2.18Zm-18.92,34.98h-28.14c-3.96,0-7.17-3.21-7.17-7.17h0c0-3.35,2.78-6.16,6.54-6.94-.11-.5-.18-1.01-.18-1.53,0-4.68,4.58-8.47,10.23-8.47,4.69,0,8.63,2.62,9.84,6.18.93-.39,1.99-.62,3.11-.62,3.8,0,6.87,2.55,6.87,5.69,0,.01,0,.03,0,.04,3.41.33,6.06,2.73,6.06,5.65h0c0,3.96-3.21,7.17-7.17,7.17Z"/>
  </g>
</svg>