<?xml version="1.0" encoding="UTF-8"?>
<svg id="Layer_2" data-name="Layer 2" xmlns="http://www.w3.org/2000/svg" viewBox="0 0 69.22 75.6">
  <defs>
    <style>
      .cls-1 {
        fill: #fff;
      }
    </style>
  </defs>
  <g id="Layer_1-2" data-name="Layer 1">
    <g>
      <path class="cls-1" d="m30.03,41.85c9.99,8.52,24.99,7.33,33.5-2.66,8.52-9.99,7.33-24.99-2.66-33.5-9.99-8.52-24.99-7.33-33.5,2.66-8.52,9.99-7.33,24.99,2.66,33.5Zm3.2-28.51c5.75-6.74,15.91-7.55,22.65-1.8,6.74,5.75,7.55,15.91,1.8,22.65-5.75,6.74-15.91,7.55-22.65,1.8-6.74-5.75-7.55-15.91-1.8-22.65Z"/>
      <rect class="cls-1" x="23.84" y="39.29" width="10.18" height="7.7" transform="translate(-22.66 37.15) rotate(-49.53)"/>
      <path class="cls-1" d="m1.24,70.34l5.18,4.42c1.48,1.26,3.71,1.09,4.97-.39l19.43-22.76c1.26-1.48,1.09-3.71-.39-4.97l-5.18-4.42c-1.48-1.26-3.71-1.09-4.97.39L.84,65.37c-1.26,1.48-1.09,3.71.39,4.97Z"/>
    </g>
  </g>
</svg>