<?xml version="1.0" encoding="UTF-8"?>
<svg id="Layer_2" data-name="Layer 2" xmlns="http://www.w3.org/2000/svg" viewBox="0 0 67.33 76.29">
  <defs>
    <style>
      .cls-1 {
        fill: #fff;
      }
    </style>
  </defs>
  <g id="Layer_1-2" data-name="Layer 1">
    <path class="cls-1" d="m12.86,75.65l27.52-34.14c7.92,2.25,16.78-.26,22.27-7.08,7.33-9.1,5.9-22.42-3.19-29.75s-22.42-5.9-29.75,3.19c-5.49,6.82-6.07,16-2.18,23.27l-6.71,8.32,1,6.69-6.75.44-1.19,1.48,1,6.69-6.75.44-1.19,1.48,1,6.69-6.75.44-1.19,1.48,1.45,9.71,1.61,1.3,9.8-.64ZM47.13,10.27c2.11-2.62,5.94-3.03,8.56-.92s3.03,5.94.92,8.56-5.94,3.03-8.56.92-3.03-5.94-.92-8.56Z"/>
  </g>
</svg>