<?xml version="1.0" encoding="UTF-8"?>
<svg id="Layer_2" data-name="Layer 2" xmlns="http://www.w3.org/2000/svg" viewBox="0 0 80.44 79.59">
  <defs>
    <style>
      .cls-1 {
        fill: #fff;
      }
    </style>
  </defs>
  <g id="Layer_1-2" data-name="Layer 1">
    <g>
      <path class="cls-1" d="m46.96,33.6c0,3.72-3.02,6.73-6.73,6.73s-6.73-3.01-6.73-6.73,3.01-6.73,6.73-6.73,6.73,3.01,6.73,6.73Z"/>
      <path class="cls-1" d="m53.69,60.65c0-5.37-1.2-12.79-2.57-14.65-1.26-1.71-5.94-3.56-10.9-3.56s-9.64,1.84-10.9,3.56c-1.37,1.86-2.57,9.28-2.57,14.65h26.94Z"/>
    </g>
    <path class="cls-1" d="m78.76,51.05c.93-3.06,1.51-6.28,1.68-9.6.06-1.21-.66-2.32-1.79-2.75l-5.52-2.12-1.05-5.94,4.47-3.89c.91-.79,1.21-2.08.74-3.2-1.29-3.02-2.93-5.85-4.88-8.44-.73-.97-2-1.36-3.15-.97l-5.59,1.92-4.62-3.88.92-5.85c.19-1.2-.42-2.38-1.5-2.93-2.87-1.46-5.94-2.59-9.16-3.33-1.18-.27-2.39.25-3.02,1.28l-3.05,5.08h-6.04l-3.05-5.08c-.62-1.03-1.84-1.55-3.02-1.28-3.22.74-6.3,1.87-9.17,3.34-1.08.55-1.69,1.73-1.5,2.93l.93,5.85-4.62,3.88-5.6-1.92c-1.15-.39-2.42,0-3.15.97-1.95,2.59-3.59,5.42-4.88,8.44-.47,1.11-.17,2.4.74,3.2l4.47,3.89-1.05,5.94-5.52,2.12c-1.13.43-1.85,1.54-1.79,2.75.17,3.32.75,6.54,1.68,9.6.35,1.16,1.41,1.97,2.63,1.99l5.92.1,3.02,5.23-2.86,5.17c-.59,1.06-.42,2.38.41,3.27,2.22,2.37,4.72,4.47,7.45,6.25,1.02.66,2.35.6,3.29-.16l4.6-3.72,5.67,2.06,1.13,5.81c.23,1.19,1.21,2.09,2.42,2.24,1.59.19,3.21.29,4.86.29s3.27-.1,4.87-.29c1.21-.15,2.18-1.05,2.42-2.24l1.13-5.81,5.67-2.07,4.6,3.72c.95.76,2.27.83,3.29.16,2.73-1.78,5.23-3.88,7.44-6.26.83-.89,1-2.21.41-3.27l-2.87-5.17,3.02-5.23,5.92-.11c1.21-.02,2.27-.83,2.62-1.99Zm-38.54,9.07c-11.49,0-20.8-9.31-20.8-20.8s9.31-20.8,20.8-20.8,20.8,9.31,20.8,20.8-9.31,20.8-20.8,20.8Z"/>
  </g>
</svg>