<?xml version="1.0" encoding="UTF-8"?>
<svg id="Layer_2" data-name="Layer 2" xmlns="http://www.w3.org/2000/svg" viewBox="0 0 75 75">
  <defs>
    <style>
      .cls-1 {
        fill: #fff;
      }
    </style>
  </defs>
  <g id="Layer_1-2" data-name="Layer 1">
    <g>
      <path class="cls-1" d="m74.99,36.78c-.18-9.63-4-18.38-10.13-24.92-1.8-1.92-3.79-3.65-5.96-5.15h0c-.2-.15-.4-.28-.6-.41-1.09-.73-2.22-1.4-3.38-2.01h0c-.16-.09-.33-.18-.5-.26-.09-.05-.18-.1-.27-.15-1.39-.69-2.82-1.29-4.3-1.8-.02,0-.04-.02-.06-.02-.3-.1-.6-.21-.91-.3-1.26-.4-2.54-.74-3.86-1-.34-.07-.68-.13-1.02-.19-2.11-.37-4.27-.56-6.5-.56-1.69,0-3.36.11-4.99.33-1.49.2-2.96.48-4.39.86-1.08.28-2.14.6-3.18.97-.84.3-1.67.62-2.48.98-3,1.31-5.81,3.02-8.34,5.04-4.43,3.54-8.05,8.06-10.51,13.24-.62,1.3-1.17,2.64-1.63,4.01h0c-.67,1.97-1.17,4.01-1.51,6.11-.31,1.94-.47,3.92-.47,5.95,0,3.55.5,6.98,1.41,10.24,1,3.53,2.5,6.85,4.43,9.87.1.16.21.32.3.47.42.64.86,1.27,1.32,1.88.06.09.14.17.2.26.53.7,1.08,1.37,1.66,2.03.11.13.23.26.36.39,3.02,3.35,6.65,6.14,10.7,8.23,4.12,2.11,8.69,3.49,13.52,3.95.06,0,.11.01.18.02.17.02.33.03.51.04.93.07,1.87.11,2.82.11h.09c.35,0,.69,0,1.03-.01.45-.01.9-.03,1.34-.06.17-.01.34-.02.51-.04,1.38-.09,2.75-.27,4.08-.53,3.56-.67,6.95-1.84,10.08-3.44h0c.18-.09.36-.19.54-.29,1.1-.58,2.16-1.21,3.19-1.9.45-.3.89-.61,1.33-.94.8-.58,1.58-1.2,2.33-1.84.72-.61,1.41-1.25,2.07-1.93,2.03-2.03,3.83-4.29,5.35-6.74.82-1.31,1.56-2.69,2.22-4.1,1.09-2.36,1.93-4.85,2.51-7.45.18-.81.34-1.63.46-2.46.29-1.88.44-3.8.44-5.76,0-.24,0-.48,0-.72Zm-15,23.24c-.55.56-1.14,1.1-1.73,1.61h0s-.01.02-.01.02c-.98.84-2.02,1.64-3.12,2.37-.6.4-1.22.79-1.86,1.15-.32.18-.64.36-.97.53l-.33.17c-1.16.59-2.35,1.11-3.56,1.55-1.62.59-3.29,1.05-5,1.38-1.13.22-2.28.36-3.41.44h-.15s-.12.03-.12.03c-.06,0-.12,0-.17,0h-.02s-.01,0-.01,0c-.66.04-1.34.06-2.02.06h-.09c-.28,0-.56,0-.84-.02-.5,0-1.01-.04-1.52-.08l-.17-.02s-.09,0-.1,0h-.09s-.09-.02-.09-.02c-.86-.07-1.72-.19-2.56-.34-3.15-.54-6.19-1.55-9.05-3.02-3.32-1.72-6.27-3.94-8.77-6.65-.11-.11-.21-.23-.32-.34l-.02-.02-.02-.03c-.07-.07-.14-.15-.21-.22l-.04-.04-.03-.04c-.47-.53-.93-1.09-1.4-1.71l-.11-.15-.07-.09c-.4-.54-.76-1.04-1.09-1.55l-.07-.1-.06-.09c-.04-.06-.08-.12-.11-.18v-.02s-.03-.02-.03-.02c-1.65-2.59-2.91-5.41-3.75-8.36-.79-2.82-1.2-5.74-1.2-8.7,0-1.7.14-3.4.4-5.05.42-2.62,1.16-5.14,2.19-7.52h0c.68-1.59,1.49-3.12,2.43-4.58,1.86-2.91,4.21-5.52,6.97-7.73.73-.58,1.48-1.13,2.25-1.64,1.64-1.09,3.38-2.02,5.19-2.78.57-.25,1.16-.47,1.75-.68,2.08-.74,4.24-1.26,6.43-1.55,1.38-.18,2.8-.28,4.24-.28,1.85,0,3.71.16,5.52.48h.03s.04.01.04.01c.23.04.48.08.76.14h.02s.02,0,.02,0c1.09.22,2.19.51,3.26.85h.02s.01,0,.01,0c.14.04.29.09.44.14h.02s.36.13.36.13c.66.23,1.32.48,1.97.77.55.23,1.1.48,1.64.75.22.1.41.21.58.3l1.23.67c.18.1.36.21.53.32,2.78,1.68,5.26,3.75,7.37,6.12,1.73,1.95,3.22,4.11,4.41,6.42,2.24,4.29,3.5,9.09,3.6,14.1v.06s0,.06,0,.06c0,.16,0,.32,0,.48,0,1.65-.12,3.29-.38,4.91-.1.69-.23,1.37-.39,2.04h0s0,.03,0,.03c-.27,1.23-.62,2.44-1.05,3.62h0c-.52,1.51-1.16,2.96-1.91,4.36-1.46,2.75-3.35,5.3-5.6,7.55Z"/>
      <path class="cls-1" d="m59.61,67.78c-.44.33-.88.64-1.33.94-1.03.69-2.09,1.33-3.19,1.9-2.32-.94-4.55-2.01-6.69-3.21-2.83-1.59-5.52-3.42-8.04-5.46-.67-.55-1.33-1.11-1.97-1.67-.04-.03-.07-.07-.11-.1-.71-.64-1.43-1.31-2.14-2.01-.23-.22-.54-.54-.92-.93-.29-.29-.58-.59-.86-.9-.14-.14-.27-.29-.41-.43-.58-.63-1.17-1.28-1.76-1.97-.44-.51-.87-1.03-1.28-1.56-.29-.35-.57-.7-.84-1.06-1.15-1.49-2.23-3.03-3.22-4.59-.23-.36-.45-.72-.67-1.08-.54-.88-1.07-1.83-1.59-2.81-.54-1.02-1.01-1.96-1.42-2.88-1.76-3.84-3.01-7.77-3.7-11.67-.01-.05-.01-.09-.02-.14-.22-1.23-.38-2.46-.48-3.69-.12-1.43-.18-2.85-.16-4.27,0-.7.03-1.4.07-2.1.02-.41.06-.84.09-1.27.01-.12.02-.23.04-.34.17-1.84.47-3.69.89-5.5.09-.38.18-.77.28-1.15.58-2.26,1.34-4.48,2.27-6.67.81-.36,1.64-.69,2.48-.98,1.04-.37,2.1-.7,3.18-.97-1.23,2.27-2.24,4.61-3.03,7-.29.89-.56,1.79-.79,2.7-.49,1.88-.83,3.8-1.03,5.74h0c-.02.19-.04.37-.05.56-.04.39-.07.77-.09,1.14-.04.74-.07,1.49-.07,2.24,0,1.44.07,2.88.23,4.32.1.88.22,1.76.38,2.64,0,.04.02.08.02.12.63,3.51,1.76,7.06,3.35,10.53.39.84.81,1.72,1.31,2.65.48.9.98,1.78,1.48,2.6.28.46.56.91.86,1.37.02.03.04.06.06.09,1.11,1.73,2.33,3.41,3.66,5.04.29.36.59.73.9,1.08.04.05.08.1.12.16,1.18,1.38,2.19,2.44,2.83,3.09.06.06.12.12.18.18.27.28.49.51.68.68.57.56,1.14,1.1,1.69,1.61.1.1.19.18.29.27.62.55,1.28,1.1,1.93,1.64,3.14,2.55,6.56,4.72,10.23,6.51,2.04.99,4.15,1.86,6.34,2.62Z"/>
      <path class="cls-1" d="m65.72,22.79c-.2,3.06-.78,6.02-1.75,8.86-.06.18-.12.36-.19.54-.22.63-.47,1.24-.73,1.84-.09.22-.19.45-.3.68l-.11.22c-.32.69-.69,1.41-1.08,2.1-.54.96-1.12,1.87-1.73,2.74-.84,1.18-1.74,2.29-2.69,3.31-1.58,1.71-3.3,3.19-5.07,4.49-3.5,2.56-7.25,4.4-10.7,5.78-1.01.41-1.99.76-2.93,1.1-.51.18-1,.35-1.49.51-.91.3-1.79.58-2.62.83-.13.04-.26.07-.39.11-.41.12-.81.25-1.18.35-.43.12-.85.25-1.25.37-.41.12-.84.24-1.27.35-.03.01-.07.02-.11.03-.93.25-1.94.49-3.05.74-.75.16-1.51.31-2.27.44-3.49.62-7.04.95-10.61.98-.22,0-.44,0-.66,0-.82,0-1.62-.01-2.44-.04-1.04-.03-2.11-.09-3.26-.19l-.33-.03.36-4.24.34.03c.91.08,1.77.13,2.61.17.15,0,.28,0,.42.01,4.16.15,8.29-.11,12.33-.8.88-.14,1.74-.31,2.61-.5,1.08-.24,2.05-.48,2.97-.73.31-.08.6-.16.89-.24.1-.03.19-.05.28-.08.19-.06.4-.11.59-.18.21-.06.43-.12.65-.19.84-.25,1.78-.53,2.77-.85.32-.1.65-.2.98-.31.1-.03.21-.06.3-.1,1.43-.48,2.99-1.03,4.59-1.69,2.91-1.19,6-2.73,8.91-4.79,1.73-1.22,3.4-2.63,4.91-4.26.96-1.02,1.84-2.12,2.66-3.33.41-.61.81-1.24,1.18-1.9.34-.59.66-1.2.94-1.82l.1-.22c.07-.15.16-.34.24-.54.29-.66.56-1.35.79-2.06.02-.04.03-.08.04-.12,1.45-4.3,1.89-8.97,1.33-13.8-.32-2.76-.97-5.56-1.94-8.37-.15-.43-.3-.85-.47-1.28,2.17,1.5,4.16,3.22,5.96,5.15.8,3.71,1.09,7.37.86,10.93Z"/>
      <path class="cls-1" d="m54.92,4.29c1.16.61,2.29,1.28,3.38,2.01-1.38,1.16-2.85,2.48-4.35,3.95-3.56,3.48-7.33,7.82-10.62,13.01-.25.39-.49.78-.73,1.18-.39.64-.76,1.27-1.11,1.92-.7,1.25-1.35,2.51-1.94,3.79-.65,1.37-1.23,2.76-1.75,4.15-.25.64-.48,1.28-.69,1.93-.97,2.9-1.69,5.86-2.16,8.86-.25,1.6-.43,3.23-.54,4.85-.03.47-.06.94-.07,1.4-.02.44-.03.88-.04,1.32,0,.52,0,1.03,0,1.53.01.53.03,1.06.05,1.6,0,.18.01.36.02.55.01.31.03.62.05.93.11,1.64.29,3.28.55,4.91.37,2.39.91,4.77,1.6,7.13.55,1.9,1.21,3.8,1.97,5.67-.34.01-.68.01-1.03.01h-.09c-.95,0-1.89-.04-2.82-.11-.17-.01-.34-.02-.51-.04-.06,0-.11,0-.18-.02-.73-1.97-1.36-3.96-1.88-5.96-.56-2.15-1.01-4.32-1.33-6.51-.25-1.6-.42-3.2-.53-4.81,0-.18-.02-.36-.03-.53-.05-.94-.08-1.86-.1-2.77,0-.53,0-1.07,0-1.62v-.05c0-.42.02-.84.04-1.27.08-2.15.28-4.28.6-6.4,0-.04.01-.07.01-.1.51-3.37,1.3-6.68,2.38-9.92.3-.91.63-1.81.98-2.71.5-1.28,1.04-2.56,1.63-3.82.6-1.28,1.24-2.54,1.93-3.8.43-.78.88-1.55,1.33-2.32.15-.24.29-.48.44-.72,3.25-5.24,6.99-9.69,10.58-13.31,1.53-1.54,3.03-2.94,4.45-4.18.17.08.34.17.5.26h0Z"/>
      <path class="cls-1" d="m26.95,23.03c-.44,3.33-3.5,5.67-6.82,5.23-3.33-.44-5.67-3.49-5.23-6.82.44-3.33,3.49-5.67,6.82-5.23,3.33.44,5.67,3.5,5.23,6.82Z"/>
      <path class="cls-1" d="m44.92,27.59c-.47,3.53-3.71,6.01-7.23,5.54-3.53-.47-6.01-3.71-5.54-7.23.47-3.53,3.71-6.01,7.23-5.54,3.53.47,6.01,3.71,5.54,7.23Z"/>
      <path class="cls-1" d="m41.29,54.8c-.65,4.87-5.12,8.3-10,7.66-4.87-.65-8.3-5.12-7.66-10,.65-4.88,5.12-8.3,10-7.66,4.87.65,8.3,5.12,7.66,10Z"/>
      <path class="cls-1" d="m67.05,40.79c-.7,5.3-5.57,9.03-10.87,8.33-5.3-.7-9.03-5.57-8.33-10.87.7-5.3,5.57-9.03,10.87-8.33,5.3.7,9.03,5.57,8.33,10.87Z"/>
      <path class="cls-1" d="m65.85,56.12c-8.87-19.3-28.31-31.76-49.54-31.76-3.73,0-7.45.38-11.07,1.12l-.86-4.16c3.9-.8,7.91-1.21,11.92-1.21,22.88,0,43.84,13.44,53.4,34.24l-3.86,1.78Z"/>
    </g>
  </g>
</svg>