<?xml version="1.0" encoding="UTF-8"?>
<svg id="Layer_2" data-name="Layer 2" xmlns="http://www.w3.org/2000/svg" viewBox="0 0 86.52 78.86">
  <defs>
    <style>
      .cls-1 {
        fill: #fff;
      }
    </style>
  </defs>
  <g id="Layer_1-2" data-name="Layer 1">
    <g>
      <path class="cls-1" d="m25.2,41.82c-1.07,0-1.86-.74-2.48-1.94-.61-1.19-1.3-8.18-1.39-9.38-.09-1.2,2.23-2.44,3.75-2.46s3.86,1.19,3.79,2.39c-.07,1.2-.63,8.2-1.23,9.4-.59,1.2-1.37,1.97-2.44,1.98Z"/>
      <path class="cls-1" d="m61.11,41.5c1.07,0,1.85-.78,2.44-1.98.59-1.2,1.16-8.2,1.23-9.4.07-1.2-2.28-2.4-3.79-2.39-1.51.01-3.84,1.26-3.75,2.46.09,1.2.78,8.18,1.39,9.38.62,1.19,1.41,1.94,2.48,1.94Z"/>
      <path class="cls-1" d="m38.94,26.84S1.69,48.74,1.22,49.09c-.47.35-1.25,1.06-1.21,1.71.05.65-.06,2.57.03,3.22s29.83-9.07,29.83-9.07l10.07-.28-.99-17.84Z"/>
      <path class="cls-1" d="m47.11,26.77s37.64,21.24,38.11,21.59c.48.34,1.27,1.03,1.24,1.69-.03.65.1,2.57.03,3.22s-29.98-8.54-29.98-8.54l-10.07-.11.67-17.85Z"/>
      <path class="cls-1" d="m41.07,62.28c-.18.09-14.74,9.42-15.19,10.06s-.36,5.26-.36,5.26l16.78-4.18-1.23-11.14Z"/>
      <path class="cls-1" d="m45.61,62.24c.18.09,14.9,9.16,15.36,9.79s.45,5.25.45,5.25l-16.85-3.89,1.03-11.16Z"/>
      <path class="cls-1" d="m42.79,0c-4.19.04-7.27,6.08-7.24,8.89.02,2.81.84,46.22,1.23,48.25.39,2.03,3.86,21.74,6.71,21.72,2.84-.03,5.96-19.79,6.32-21.83.36-2.04.41-45.45.38-48.27C50.16,5.95,46.98-.04,42.79,0Z"/>
    </g>
  </g>
</svg>