<svg width="110" height="113" viewBox="0 0 110 113" fill="none" xmlns="http://www.w3.org/2000/svg">
<ellipse cx="55" cy="56.322" rx="55" ry="56.322" fill="#0069CA"/>
<path d="M32.9741 75.5437C36.8226 75.5437 39.9482 78.7444 39.9482 82.6854V86H26V82.6854C26 78.7444 29.1256 75.5437 32.9741 75.5437Z" stroke="white" stroke-width="1.5" stroke-miterlimit="10"/>
<path d="M32.9739 75.5552C35.2345 75.5552 37.0671 73.6785 37.0671 71.3635C37.0671 69.0485 35.2345 67.1719 32.9739 67.1719C30.7132 67.1719 28.8806 69.0485 28.8806 71.3635C28.8806 73.6785 30.7132 75.5552 32.9739 75.5552Z" stroke="white" stroke-width="1.5" stroke-miterlimit="10"/>
<path d="M55.1866 75.5437C59.0352 75.5437 62.1607 78.7444 62.1607 82.6854V86H48.2236V82.6854C48.2236 78.7444 51.3492 75.5437 55.1977 75.5437H55.1866Z" stroke="white" stroke-width="1.5" stroke-miterlimit="10"/>
<path d="M55.1863 75.5552C57.4469 75.5552 59.2795 73.6785 59.2795 71.3635C59.2795 69.0485 57.4469 67.1719 55.1863 67.1719C52.9256 67.1719 51.093 69.0485 51.093 71.3635C51.093 73.6785 52.9256 75.5552 55.1863 75.5552Z" stroke="white" stroke-width="1.5" stroke-miterlimit="10"/>
<path d="M77.411 75.5437C81.2595 75.5437 84.3851 78.7444 84.3851 82.6854V86H70.448V82.6854C70.448 78.7444 73.5736 75.5437 77.4221 75.5437H77.411Z" stroke="white" stroke-width="1.5" stroke-miterlimit="10"/>
<path d="M77.4099 75.5552C79.6705 75.5552 81.5032 73.6785 81.5032 71.3635C81.5032 69.0485 79.6705 67.1719 77.4099 67.1719C75.1493 67.1719 73.3167 69.0485 73.3167 71.3635C73.3167 73.6785 75.1493 75.5552 77.4099 75.5552Z" stroke="white" stroke-width="1.5" stroke-miterlimit="10"/>
<path d="M55.1538 46.8969C59.6997 46.8969 63.3848 43.1232 63.3848 38.4681C63.3848 33.813 59.6997 30.0392 55.1538 30.0392C50.608 30.0392 46.9229 33.813 46.9229 38.4681C46.9229 43.1232 50.608 46.8969 55.1538 46.8969Z" stroke="white" stroke-width="1.5" stroke-miterlimit="10"/>
<path d="M70.2471 41.9763V34.9371H66.7545C66.5098 34.0942 66.1872 33.2855 65.7868 32.5337L68.245 30.0164L63.3842 25.0389L60.926 27.5561C60.1808 27.1461 59.4022 26.8158 58.5791 26.5652V23H51.7051V26.5766C50.882 26.8272 50.0923 27.1575 49.3582 27.5675L46.9 25.0503L42.0392 30.0278L44.4974 32.5451C44.097 33.3083 43.7744 34.1056 43.5297 34.9485H40.0371V41.9877H43.5297C43.7744 42.8306 44.097 43.6393 44.4974 44.391L42.0392 46.9083L46.9 51.8859L49.3582 49.3572C50.1034 49.7673 50.882 50.0976 51.7051 50.3482V53.9248H58.5791V50.3482C59.4022 50.0976 60.1919 49.7673 60.926 49.3572L63.3842 51.8745L68.245 46.8969L65.7868 44.3797C66.1872 43.6165 66.5098 42.8192 66.7545 41.9763H70.2471Z" stroke="white" stroke-width="1.5" stroke-miterlimit="10"/>
<path d="M59.1688 38.7187L52.4839 34.7663V42.6712L59.1688 38.7187Z" stroke="white" stroke-width="1.5" stroke-miterlimit="10"/>
<path d="M55.1199 63.9596V56.7154" stroke="white" stroke-width="1.5" stroke-miterlimit="10" stroke-dasharray="1.81 1.81"/>
<path d="M32.7961 63.9598V38.8214H37.9461" stroke="white" stroke-width="1.5" stroke-miterlimit="10" stroke-dasharray="1.81 1.81"/>
<path d="M77.5105 63.9598V38.8214H72.3606" stroke="white" stroke-width="1.5" stroke-miterlimit="10" stroke-dasharray="1.81 1.81"/>
</svg>
