<svg width="101" height="109" viewBox="0 0 101 109" fill="none" xmlns="http://www.w3.org/2000/svg">
<path d="M13.5868 89.296C19.9808 89.296 25.1736 94.6136 25.1736 101.161V106.668H2V101.161C2 94.6136 7.1928 89.296 13.5868 89.296Z" stroke="#0069CA" stroke-width="3" stroke-miterlimit="10"/>
<path d="M13.5867 89.315C17.3425 89.315 20.3872 86.1971 20.3872 82.351C20.3872 78.5049 17.3425 75.387 13.5867 75.387C9.83084 75.387 6.78613 78.5049 6.78613 82.351C6.78613 86.1971 9.83084 89.315 13.5867 89.315Z" stroke="#0069CA" stroke-width="3" stroke-miterlimit="10"/>
<path d="M50.4907 89.296C56.8847 89.296 62.0775 94.6136 62.0775 101.161V106.668H38.9224V101.161C38.9224 94.6136 44.1152 89.296 50.5092 89.296H50.4907Z" stroke="#0069CA" stroke-width="3" stroke-miterlimit="10"/>
<path d="M50.491 89.315C54.2468 89.315 57.2915 86.1971 57.2915 82.351C57.2915 78.5049 54.2468 75.387 50.491 75.387C46.7351 75.387 43.6904 78.5049 43.6904 82.351C43.6904 86.1971 46.7351 89.315 50.491 89.315Z" stroke="#0069CA" stroke-width="3" stroke-miterlimit="10"/>
<path d="M87.413 89.296C93.807 89.296 98.9998 94.6136 98.9998 101.161V106.668H75.8447V101.161C75.8447 94.6136 81.0375 89.296 87.4315 89.296H87.413Z" stroke="#0069CA" stroke-width="3" stroke-miterlimit="10"/>
<path d="M87.4133 89.315C91.1692 89.315 94.2139 86.1971 94.2139 82.351C94.2139 78.5049 91.1692 75.387 87.4133 75.387C83.6575 75.387 80.6128 78.5049 80.6128 82.351C80.6128 86.1971 83.6575 89.315 87.4133 89.315Z" stroke="#0069CA" stroke-width="3" stroke-miterlimit="10"/>
<path d="M50.4357 41.7024C57.9882 41.7024 64.1107 35.4327 64.1107 27.6987C64.1107 19.9647 57.9882 13.695 50.4357 13.695C42.8832 13.695 36.7607 19.9647 36.7607 27.6987C36.7607 35.4327 42.8832 41.7024 50.4357 41.7024Z" stroke="#0069CA" stroke-width="3" stroke-miterlimit="10"/>
<path d="M75.5127 33.5272V21.8323H69.7101C69.3035 20.4319 68.7676 19.0883 68.1023 17.8393L72.1864 13.6571L64.1107 5.38738L60.0267 9.56957C58.7886 8.88831 57.495 8.33951 56.1275 7.92319V2H44.707V7.94211C43.3395 8.35844 42.0274 8.90723 40.8078 9.58849L36.7238 5.40631L28.6481 13.6761L32.7321 17.8582C32.0669 19.1261 31.531 20.4508 31.1244 21.8512H25.3218V33.5462H31.1244C31.531 34.9465 32.0669 36.2901 32.7321 37.5391L28.6481 41.7213L36.7238 49.9911L40.8078 45.7899C42.0459 46.4712 43.3395 47.02 44.707 47.4363V53.3784H56.1275V47.4363C57.495 47.02 58.807 46.4712 60.0267 45.7899L64.1107 49.9721L72.1864 41.7024L68.1023 37.5202C68.7676 36.2523 69.3035 34.9276 69.7101 33.5272H75.5127Z" stroke="#0069CA" stroke-width="3" stroke-miterlimit="10"/>
<path d="M57.1068 28.115L46.0005 21.5484V34.6816L57.1068 28.115Z" stroke="#0069CA" stroke-width="3" stroke-miterlimit="10"/>
<path d="M50.3804 70.0504V58.0148" stroke="#0069CA" stroke-width="3" stroke-miterlimit="10" stroke-dasharray="5 5"/>
<path d="M13.2905 70.0504V28.2853H21.8466" stroke="#0069CA" stroke-width="3" stroke-miterlimit="10" stroke-dasharray="5 5"/>
<path d="M87.58 70.0504V28.2853H79.0239" stroke="#0069CA" stroke-width="3" stroke-miterlimit="10" stroke-dasharray="5 5"/>
</svg>
