<svg width="49" height="43" viewBox="0 0 49 43" fill="none" xmlns="http://www.w3.org/2000/svg">
<path d="M48.0001 2.39049H38.0552V41.4496H48.0001V2.39049Z" stroke="white" stroke-width="1.128" stroke-miterlimit="10"/>
<path d="M23.2965 20.2329H13.3516V41.4496H23.2965V20.2329Z" stroke="white" stroke-width="1.128" stroke-miterlimit="10"/>
<path d="M10.945 30.8446H1V41.4564H10.945V30.8446Z" stroke="white" stroke-width="1.128" stroke-miterlimit="10"/>
<path d="M35.6481 12.4319H25.7031V41.2255H35.6481V12.4319Z" stroke="white" stroke-width="1.128" stroke-miterlimit="10"/>
<path d="M6.37147 0.601192C6.15121 0.380936 5.7941 0.380936 5.57385 0.601192L1.98457 4.19047C1.76432 4.41072 1.76432 4.76783 1.98457 4.98808C2.20483 5.20834 2.56194 5.20834 2.78219 4.98808L5.97266 1.79762L9.16312 4.98808C9.38338 5.20834 9.74048 5.20834 9.96074 4.98808C10.181 4.76783 10.181 4.41072 9.96074 4.19047L6.37147 0.601192ZM6.53666 13.7656L6.53666 1L5.40866 1L5.40866 13.7656L6.53666 13.7656Z" fill="white"/>
<path d="M17.9249 14.1644C18.1452 14.3847 18.5023 14.3847 18.7225 14.1644L22.3118 10.5751C22.5321 10.3549 22.5321 9.99776 22.3118 9.77751C22.0916 9.55725 21.7345 9.55725 21.5142 9.77751L18.3237 12.968L15.1333 9.77751C14.913 9.55725 14.5559 9.55725 14.3356 9.77751C14.1154 9.99776 14.1154 10.3549 14.3356 10.5751L17.9249 14.1644ZM17.7597 1L17.7597 13.7656L18.8877 13.7656L18.8877 1L17.7597 1Z" fill="white"/>
</svg>
