<svg width="66" height="64" viewBox="0 0 66 64" fill="none" xmlns="http://www.w3.org/2000/svg">
<path d="M13.8285 35.9905H1V63.066H13.8285V35.9905Z" stroke="white" stroke-width="1.536" stroke-miterlimit="10"/>
<path d="M57.9353 34.7775C56.9114 28.7128 51.772 24.1077 45.5484 24.1077C39.3249 24.1077 34.1855 28.7128 33.1616 34.7775" stroke="white" stroke-width="1.536" stroke-miterlimit="10"/>
<path d="M45.5481 24.1073C49.6283 24.1073 52.936 20.7201 52.936 16.5418C52.936 12.3635 49.6283 8.97632 45.5481 8.97632C41.4678 8.97632 38.1602 12.3635 38.1602 16.5418C38.1602 20.7201 41.4678 24.1073 45.5481 24.1073Z" stroke="white" stroke-width="1.536" stroke-miterlimit="10"/>
<path d="M45.6087 39.691C56.0421 39.691 64.5001 31.0297 64.5001 20.3455C64.5001 9.66128 56.0421 1 45.6087 1C35.1753 1 26.7173 9.66128 26.7173 20.3455C26.7173 31.0297 35.1753 39.691 45.6087 39.691Z" stroke="white" stroke-width="1.536" stroke-miterlimit="10"/>
<path d="M14.2502 41.9555C14.2502 41.9555 20.6344 39.3101 23.9871 39.6301C29.6284 40.1635 39.8872 40.7395 39.7868 44.7501C39.6864 48.5261 30.2708 47.3955 28.1829 47.3101C25.834 47.2035 24.4488 51.2781 32.2985 51.8328C40.1481 52.3875 46.4921 53.1981 48.4796 52.1955C50.4671 51.1928 59.5013 44.4728 62.1915 43.5341C64.179 42.8301 66.6684 45.2621 63.4563 48.8675C60.5051 52.1741 52.3944 59.9395 48.4997 60.7715C43.5209 61.8168 23.6056 60.4301 23.6056 60.4301L13.9893 57.7635" stroke="white" stroke-width="1.536" stroke-miterlimit="10"/>
</svg>
