<svg width="40" height="39" viewBox="0 0 40 39" fill="none" xmlns="http://www.w3.org/2000/svg">
<path d="M8.91085 21.7183H1.31494V37.75H8.91085V21.7183Z" stroke="#D266D3" stroke-width="1.5" stroke-miterlimit="10"/>
<path d="M35.0277 21.0004C34.4214 17.4094 31.3783 14.6826 27.6933 14.6826C24.0083 14.6826 20.9651 17.4094 20.3589 21.0004" stroke="#D266D3" stroke-width="1.5" stroke-miterlimit="10"/>
<path d="M27.6938 14.6819C30.1098 14.6819 32.0683 12.6763 32.0683 10.2023C32.0683 7.72826 30.1098 5.72266 27.6938 5.72266C25.2779 5.72266 23.3193 7.72826 23.3193 10.2023C23.3193 12.6763 25.2779 14.6819 27.6938 14.6819Z" stroke="#D266D3" stroke-width="1.5" stroke-miterlimit="10"/>
<path d="M27.7303 23.9095C33.908 23.9095 38.9161 18.781 38.9161 12.4547C38.9161 6.12846 33.908 1 27.7303 1C21.5525 1 16.5444 6.12846 16.5444 12.4547C16.5444 18.781 21.5525 23.9095 27.7303 23.9095Z" stroke="#D266D3" stroke-width="1.5" stroke-miterlimit="10"/>
<path d="M9.16088 25.2497C9.16088 25.2497 12.941 23.6834 14.9262 23.8728C18.2665 24.1886 24.3408 24.5297 24.2814 26.9045C24.2219 29.1403 18.6469 28.4708 17.4106 28.4203C16.0198 28.3571 15.1996 30.7698 19.8475 31.0982C24.4954 31.4266 28.2517 31.9066 29.4285 31.3129C30.6054 30.7192 35.9546 26.7402 37.5475 26.1844C38.7243 25.7676 40.1983 27.2076 38.2964 29.3424C36.549 31.3003 31.7465 35.8983 29.4404 36.3909C26.4924 37.0099 14.7003 36.1888 14.7003 36.1888L9.00635 34.6098" stroke="#D266D3" stroke-width="1.5" stroke-miterlimit="10"/>
</svg>
