<svg width="129" height="88" viewBox="0 0 129 88" fill="none" xmlns="http://www.w3.org/2000/svg">
<path d="M12.8399 72.2779C18.7662 72.2779 23.5705 67.3582 23.5705 61.2894C23.5705 55.2206 18.7662 50.3009 12.8399 50.3009C6.91361 50.3009 2.10938 55.2206 2.10938 61.2894C2.10938 67.3582 6.91361 72.2779 12.8399 72.2779Z" stroke="#009A8B" stroke-width="3" stroke-miterlimit="10"/>
<path d="M47.3092 38.4602C53.2355 38.4602 58.0397 33.5405 58.0397 27.4718C58.0397 21.403 53.2355 16.4833 47.3092 16.4833C41.3828 16.4833 36.5786 21.403 36.5786 27.4718C36.5786 33.5405 41.3828 38.4602 47.3092 38.4602Z" stroke="#009A8B" stroke-width="3" stroke-miterlimit="10"/>
<path d="M81.8004 67.3891C87.7267 67.3891 92.5309 62.4694 92.5309 56.4006C92.5309 50.3319 87.7267 45.4122 81.8004 45.4122C75.8741 45.4122 71.0698 50.3319 71.0698 56.4006C71.0698 62.4694 75.8741 67.3891 81.8004 67.3891Z" stroke="#009A8B" stroke-width="3" stroke-miterlimit="10"/>
<path d="M116.27 24.1977C122.196 24.1977 127 19.2779 127 13.2092C127 7.14041 122.196 2.2207 116.27 2.2207C110.343 2.2207 105.539 7.14041 105.539 13.2092C105.539 19.2779 110.343 24.1977 116.27 24.1977Z" stroke="#009A8B" stroke-width="3" stroke-miterlimit="10"/>
<path d="M20.3955 53.1265L38.9002 34.1994" stroke="#009A8B" stroke-width="3" stroke-miterlimit="10"/>
<path d="M55.8062 34.4012L72.8655 49.516" stroke="#009A8B" stroke-width="3" stroke-miterlimit="10"/>
<path d="M90.9106 50.1215L111.496 22.9867" stroke="#009A8B" stroke-width="3" stroke-miterlimit="10"/>
<path d="M2 85.8677H127" stroke="#009A8B" stroke-width="3" stroke-miterlimit="10"/>
</svg>
