<svg width="26" height="34" viewBox="0 0 26 34" fill="none" xmlns="http://www.w3.org/2000/svg">
<g clip-path="url(#clip0_6_550)">
<path d="M21.5988 18.1659H7.83795C7.49269 18.1659 7.2124 18.4303 7.2124 18.7807C7.2124 19.1312 7.49269 19.3956 7.83795 19.3956H21.5988C21.9441 19.3956 22.2244 19.1312 22.2244 18.7807C22.2244 18.4303 21.9441 18.1659 21.5988 18.1659Z" fill="#E8544F"/>
<path d="M21.5988 14.5886H7.83795C7.49269 14.5886 7.2124 14.881 7.2124 15.2314C7.2124 15.5819 7.49269 15.8742 7.83795 15.8742H21.5988C21.9441 15.8742 22.2244 15.5819 22.2244 15.2314C22.2244 14.881 21.9441 14.5886 21.5988 14.5886Z" fill="#E8544F"/>
<path d="M3.71409 6.32166C3.60671 6.32166 3.47841 6.32445 3.42334 6.3306V7.4418C3.47841 7.45521 3.59569 7.46192 3.66893 7.46192C4.4404 7.46192 4.52795 7.14387 4.52795 6.86719C4.52795 6.70398 4.53566 6.32221 3.71409 6.32221V6.32166Z" fill="#E8544F"/>
<path d="M7.2287 6.32166C7.11361 6.32166 6.94731 6.33228 6.72705 6.3524V9.01133C6.94731 9.0186 7.01119 9.02195 7.18795 9.02195C7.64389 9.02195 7.95391 8.86656 8.1549 8.5474C8.30633 8.30258 8.38783 7.98118 8.38783 7.59327C8.38783 6.72578 8.02274 6.32166 7.2287 6.32166Z" fill="#E8544F"/>
<path d="M14.4363 5.4107C14.4363 4.55215 13.7508 3.85681 12.9055 3.85681H1.98053C1.13472 3.85681 0.449707 4.55271 0.449707 5.4107V9.90411C0.449707 10.7627 1.13527 11.458 1.98053 11.458H12.905C13.7508 11.458 14.4358 10.7621 14.4358 9.90411V5.4107H14.4363ZM4.91277 7.9271C4.57687 8.18813 4.14515 8.3206 3.60771 8.3206C3.54274 8.3206 3.42269 8.31837 3.42269 8.31445V9.89349H2.48658V5.59348L2.64627 5.56497C3.04605 5.49734 3.39957 5.46324 3.70793 5.46324C4.22995 5.46324 4.64735 5.58789 4.95406 5.83382C5.2751 6.0915 5.44084 6.43079 5.44084 6.84217C5.44084 7.28822 5.26463 7.65321 4.91221 7.9271H4.91277ZM8.85215 9.15176C8.46504 9.63637 7.883 9.88175 7.10052 9.88175C6.86924 9.88175 6.51462 9.85437 5.99756 9.79791L5.84557 9.77835V5.59292L5.9959 5.57224C6.62861 5.49901 7.01021 5.4638 7.23598 5.4638C7.95899 5.4638 8.51295 5.69241 8.87253 6.14348C9.16162 6.50401 9.3125 6.99253 9.3125 7.59452C9.3125 8.23452 9.16162 8.75826 8.8516 9.15232L8.85215 9.15176ZM12.454 6.3721H10.6368V7.15463H12.3439V8.10485H10.6368V9.89349H9.64564V5.47777H12.454V6.3721Z" fill="#E8544F"/>
<path d="M15.9779 0.00167686V0H4.99013C4.14047 0 3.47803 0.71993 3.47803 1.58239V3.13013H4.74453V2.32692C4.74453 1.75455 5.15973 1.28559 5.7236 1.28559H15.9779V8.6101C15.9779 9.46641 16.6607 10.1729 17.5038 10.1729H24.7333V28.1907C24.7333 28.7631 24.2614 29.2332 23.6981 29.2332H19.1117C19.0792 29.2891 19.0406 29.3427 18.9955 29.4026L18.1805 30.4629H24.4321C25.2818 30.4629 26.0004 29.7977 26.0004 28.9353V10.1696L15.9779 0.00167686Z" fill="#E8544F"/>
<path d="M10.3386 29.2332H5.7236C5.15973 29.2332 4.74453 28.7632 4.74453 28.1908V12.2411H3.47803V28.9353C3.47803 29.7978 4.14047 30.4629 4.99013 30.4629H11.2709L10.4559 29.4048C10.4097 29.3439 10.3711 29.2891 10.3386 29.2332Z" fill="#E8544F"/>
<path d="M18.0773 28.2829H16.4187V22.5934C16.4187 22.211 16.1263 21.855 15.7497 21.855H13.7029C13.3262 21.855 13.0052 22.211 13.0052 22.5934V28.2829H11.3753C11.0471 28.2829 10.8576 28.6787 11.052 28.9352L14.4033 33.3722C14.5636 33.5835 14.8895 33.5924 15.0498 33.3811L18.4011 28.9308C18.5954 28.6748 18.4055 28.2829 18.0773 28.2829Z" fill="#E8544F"/>
</g>
<defs>
<clipPath id="clip0_6_550">
<rect width="25.5504" height="33.5349" fill="white" transform="translate(0.449707)"/>
</clipPath>
</defs>
</svg>
