<svg width="38" height="38" viewBox="0 0 38 38" fill="none" xmlns="http://www.w3.org/2000/svg">
<path d="M17.6166 29.1942C22.3158 29.1942 26.1253 25.3847 26.1253 20.6854C26.1253 15.9861 22.3158 12.1765 17.6166 12.1765C12.9174 12.1765 9.10791 15.9861 9.10791 20.6854C9.10791 25.3847 12.9174 29.1942 17.6166 29.1942Z" stroke="#009A8B" stroke-width="1.5" stroke-miterlimit="10"/>
<path d="M25.957 22.0457C26.7211 22.1104 27.537 22.1363 28.3788 22.1363C32.9246 22.1363 36.6156 21.178 36.6156 20.0124C36.6156 19.4037 35.6443 18.8597 34.0772 18.4712" stroke="#009A8B" stroke-width="1.5" stroke-miterlimit="10"/>
<path d="M24.9209 24.9597C25.9699 25.0892 27.1484 25.1539 28.3917 25.1539C32.9375 25.1539 36.6284 24.1955 36.6284 23.0299C36.6284 22.4212 35.6571 21.8773 34.0901 21.4888" stroke="#009A8B" stroke-width="1.5" stroke-miterlimit="10"/>
<path d="M22.5508 27.5625C24.0401 27.9511 26.0993 28.1842 28.3787 28.1842C32.9244 28.1842 36.6154 27.2258 36.6154 26.0602C36.6154 25.4515 35.6441 24.9076 34.077 24.519" stroke="#009A8B" stroke-width="1.5" stroke-miterlimit="10"/>
<path d="M20.2198 28.7802C20.168 28.8708 20.1421 28.9744 20.1421 29.0651C20.1421 30.2437 23.8331 31.1891 28.3788 31.1891C32.9246 31.1891 36.6155 30.2307 36.6155 29.0651C36.6155 28.4564 35.6442 27.9125 34.0772 27.5239" stroke="#009A8B" stroke-width="1.5" stroke-miterlimit="10"/>
<path d="M22.6805 30.5674C21.1134 30.9559 20.1421 31.4999 20.1421 32.1086C20.1421 33.2871 23.8331 34.2325 28.3788 34.2325C32.9246 34.2325 36.6155 33.2742 36.6155 32.1086C36.6155 31.4999 35.6442 30.9559 34.0772 30.5674" stroke="#009A8B" stroke-width="1.5" stroke-miterlimit="10"/>
<path d="M22.6805 33.5847C21.1134 33.9732 20.1421 34.5172 20.1421 35.1259C20.1421 36.3044 23.8331 37.2499 28.3788 37.2499C32.9246 37.2499 36.6155 36.2915 36.6155 35.1259C36.6155 34.5172 35.6442 33.9732 34.0772 33.5847" stroke="#009A8B" stroke-width="1.5" stroke-miterlimit="10"/>
<path d="M24.0662 15.1167C25.3224 14.9225 26.7988 14.8059 28.3788 14.8059C32.9245 14.8059 36.6155 15.7643 36.6155 16.9299C36.6155 18.0955 32.9245 19.0539 28.3788 19.0539C27.524 19.0539 26.6952 19.015 25.9311 18.9632" stroke="#009E8C" stroke-width="1.5" stroke-miterlimit="10"/>
<path d="M27.8082 14.5986V1H7.35886L1 7.35898V36.8615H23.5474" stroke="#009A8B" stroke-width="1.5" stroke-miterlimit="10"/>
<path d="M1.00073 7.35914H7.35959V1.09082" stroke="#009A8B" stroke-width="1.5" stroke-miterlimit="10"/>
<path d="M17.1143 16.5006L17.163 14.7832H18.2774L18.2287 16.5006H17.1143ZM16.7976 26.628L16.8524 24.9229H17.9669L17.9242 26.628H16.7976ZM17.4188 25.3614C17.0046 25.3614 16.6108 25.3309 16.2373 25.27C15.8638 25.2091 15.541 25.136 15.269 25.0508C14.997 24.9655 14.8042 24.8884 14.6905 24.8194L14.9767 23.3091C15.1269 23.3984 15.3238 23.4877 15.5674 23.577C15.8151 23.6623 16.0871 23.7354 16.3835 23.7963C16.6799 23.8531 16.9783 23.8815 17.2787 23.8815C17.7618 23.8815 18.1211 23.8064 18.3566 23.6562C18.5921 23.506 18.7098 23.2644 18.7098 22.9315C18.7098 22.696 18.6449 22.4991 18.5149 22.3408C18.385 22.1784 18.18 22.02 17.8999 21.8658C17.6238 21.7115 17.2645 21.5288 16.822 21.3177C16.4444 21.135 16.0891 20.9178 15.7562 20.6661C15.4233 20.4143 15.1533 20.1139 14.9463 19.7648C14.7392 19.4156 14.6357 19.0076 14.6357 18.5407C14.6357 18.1185 14.7169 17.7551 14.8793 17.4506C15.0457 17.142 15.2731 16.8903 15.5613 16.6955C15.8496 16.4965 16.1825 16.3504 16.5601 16.257C16.9417 16.1636 17.3497 16.1169 17.7842 16.1169C18.4094 16.1169 18.9209 16.1758 19.3188 16.2935C19.7207 16.4113 20.0029 16.5209 20.1653 16.6224L19.8425 18.0718C19.6517 17.9337 19.3878 17.8099 19.0508 17.7003C18.7139 17.5866 18.3282 17.5298 17.8938 17.5298C17.6055 17.5298 17.3538 17.5643 17.1386 17.6333C16.9275 17.7023 16.7631 17.8038 16.6453 17.9378C16.5276 18.0677 16.4687 18.2281 16.4687 18.4189C16.4687 18.6462 16.5235 18.8411 16.6332 19.0035C16.7468 19.1619 16.9255 19.3161 17.1691 19.4664C17.4127 19.6125 17.7293 19.781 18.1191 19.9718C18.4723 20.1383 18.7991 20.3128 19.0996 20.4955C19.4 20.6742 19.6639 20.8711 19.8913 21.0863C20.1186 21.3014 20.2952 21.5471 20.4211 21.8231C20.5469 22.0992 20.6099 22.4159 20.6099 22.7732C20.6099 23.3172 20.482 23.7841 20.2262 24.1738C19.9704 24.5595 19.603 24.8539 19.1239 25.0569C18.6489 25.2599 18.0805 25.3614 17.4188 25.3614Z" fill="#009A8B"/>
</svg>
