<svg width="53" height="56" viewBox="0 0 53 56" fill="none" xmlns="http://www.w3.org/2000/svg">
<path d="M24.8362 42.8427C31.5773 42.8427 37.0421 37.2466 37.0421 30.3435C37.0421 23.4403 31.5773 17.8442 24.8362 17.8442C18.0951 17.8442 12.6304 23.4403 12.6304 30.3435C12.6304 37.2466 18.0951 42.8427 24.8362 42.8427Z" stroke="white" stroke-width="1.248" stroke-miterlimit="10"/>
<path d="M36.7998 32.3416C37.8959 32.4368 39.0663 32.4748 40.2739 32.4748C46.7949 32.4748 52.0896 31.067 52.0896 29.3548C52.0896 28.4606 50.6963 27.6616 48.4483 27.0908" stroke="white" stroke-width="1.248" stroke-miterlimit="10"/>
<path d="M35.314 36.6223C36.8188 36.8126 38.5094 36.9077 40.2929 36.9077C46.8138 36.9077 52.1086 35.4998 52.1086 33.7876C52.1086 32.8935 50.7153 32.0944 48.4673 31.5237" stroke="white" stroke-width="1.248" stroke-miterlimit="10"/>
<path d="M31.9136 40.4459C34.0501 41.0166 37.004 41.3591 40.2737 41.3591C46.7947 41.3591 52.0895 39.9513 52.0895 38.239C52.0895 37.3449 50.6961 36.5458 48.4481 35.9751" stroke="white" stroke-width="1.248" stroke-miterlimit="10"/>
<path d="M28.57 42.2343C28.4957 42.3675 28.4585 42.5197 28.4585 42.6529C28.4585 44.3841 33.7533 45.7729 40.2742 45.7729C46.7951 45.7729 52.0899 44.3651 52.0899 42.6529C52.0899 41.7587 50.6966 40.9597 48.4486 40.3889" stroke="white" stroke-width="1.248" stroke-miterlimit="10"/>
<path d="M32.0998 44.8601C29.8519 45.4308 28.4585 46.2299 28.4585 47.1241C28.4585 48.8553 33.7533 50.2441 40.2742 50.2441C46.7951 50.2441 52.0899 48.8363 52.0899 47.1241C52.0899 46.2299 50.6966 45.4308 48.4486 44.8601" stroke="white" stroke-width="1.248" stroke-miterlimit="10"/>
<path d="M32.0998 49.2925C29.8519 49.8632 28.4585 50.6623 28.4585 51.5564C28.4585 53.2877 33.7533 54.6765 40.2742 54.6765C46.7951 54.6765 52.0899 53.2686 52.0899 51.5564C52.0899 50.6623 50.6966 49.8632 48.4486 49.2925" stroke="white" stroke-width="1.248" stroke-miterlimit="10"/>
<path d="M34.0879 22.1631C35.89 21.8778 38.0079 21.7065 40.2744 21.7065C46.7954 21.7065 52.0901 23.1144 52.0901 24.8266C52.0901 26.5388 46.7954 27.9467 40.2744 27.9467C39.0483 27.9467 37.8593 27.8896 36.7631 27.8135" stroke="white" stroke-width="1.248" stroke-miterlimit="10"/>
<path d="M39.4568 21.4022V1.42627H10.1219L1 10.7674V54.1057H33.3446" stroke="white" stroke-width="1.248" stroke-miterlimit="10"/>
<path d="M1 10.7678H10.1219V1.55981" stroke="white" stroke-width="1.248" stroke-miterlimit="10"/>
<path d="M24.1157 23.8705L24.1856 21.407H25.7843L25.7144 23.8705H24.1157ZM23.6614 38.3985L23.74 35.9524H25.3387L25.2776 38.3985H23.6614ZM24.5525 36.5814C23.9585 36.5814 23.3935 36.5377 22.8577 36.4504C22.3219 36.363 21.8589 36.2582 21.4687 36.1359C21.0785 36.0136 20.8018 35.9029 20.6388 35.8039L21.0494 33.6374C21.2648 33.7655 21.5473 33.8936 21.8967 34.0218C22.252 34.1441 22.6422 34.2489 23.0674 34.3363C23.4925 34.4178 23.9206 34.4586 24.3516 34.4586C25.0446 34.4586 25.5601 34.3508 25.8978 34.1353C26.2356 33.9199 26.4045 33.5733 26.4045 33.0958C26.4045 32.758 26.3114 32.4755 26.125 32.2484C25.9386 32.0154 25.6445 31.7883 25.2426 31.567C24.8466 31.3456 24.3312 31.0836 23.6964 30.7807C23.1547 30.5186 22.6451 30.207 22.1676 29.846C21.69 29.4849 21.3027 29.0539 21.0057 28.553C20.7087 28.0522 20.5601 27.4668 20.5601 26.7971C20.5601 26.1914 20.6766 25.6701 20.9096 25.2333C21.1484 24.7907 21.4745 24.4296 21.888 24.1501C22.3015 23.8647 22.7791 23.655 23.3207 23.5211C23.8682 23.3871 24.4535 23.3202 25.0767 23.3202C25.9736 23.3202 26.7074 23.4046 27.2781 23.5735C27.8547 23.7424 28.2595 23.8996 28.4924 24.0452L28.0294 26.1244C27.7557 25.9264 27.3771 25.7488 26.8938 25.5915C26.4104 25.4284 25.8571 25.3469 25.2339 25.3469C24.8204 25.3469 24.4593 25.3964 24.1506 25.4954C23.8478 25.5944 23.6119 25.74 23.443 25.9322C23.2741 26.1186 23.1897 26.3486 23.1897 26.6224C23.1897 26.9485 23.2683 27.2281 23.4256 27.461C23.5886 27.6882 23.8449 27.9095 24.1943 28.125C24.5438 28.3346 24.998 28.5763 25.5571 28.8501C26.0638 29.0888 26.5327 29.3393 26.9636 29.6013C27.3946 29.8576 27.7732 30.1401 28.0993 30.4487C28.4255 30.7574 28.6788 31.1098 28.8594 31.5058C29.0399 31.9018 29.1302 32.3561 29.1302 32.8686C29.1302 33.649 28.9467 34.3188 28.5798 34.8779C28.2129 35.4312 27.6858 35.8534 26.9986 36.1446C26.3172 36.4358 25.5018 36.5814 24.5525 36.5814Z" fill="white"/>
</svg>
