<svg width="106" height="108" viewBox="0 0 106 108" fill="none" xmlns="http://www.w3.org/2000/svg">
<path d="M38.5645 76.723C58.7585 76.723 75.129 59.959 75.129 39.2796C75.129 18.6002 58.7585 1.83618 38.5645 1.83618C18.3705 1.83618 2 18.6002 2 39.2796C2 59.959 18.3705 76.723 38.5645 76.723Z" stroke="#0092C2" stroke-width="3" stroke-miterlimit="10"/>
<path d="M38.5643 68.1685C54.1447 68.1685 66.7752 55.2345 66.7752 39.2796C66.7752 23.3247 54.1447 10.3907 38.5643 10.3907C22.9839 10.3907 10.3535 23.3247 10.3535 39.2796C10.3535 55.2345 22.9839 68.1685 38.5643 68.1685Z" stroke="#0092C2" stroke-width="3" stroke-miterlimit="10"/>
<path d="M66.9805 63.3771L72.6865 69.2203" stroke="#0092C2" stroke-width="3" stroke-miterlimit="10"/>
<path d="M67.6426 74.3857L61.9365 68.5425" stroke="#0092C2" stroke-width="3" stroke-miterlimit="10"/>
<path d="M101.537 103.929C98.2045 107.342 92.7951 107.342 89.4399 103.929L65.8853 76.4893L74.7411 67.4206L101.537 91.5414C104.869 94.9539 104.869 100.493 101.537 103.929Z" stroke="#0092C2" stroke-width="3" stroke-miterlimit="10"/>
<path d="M38.5649 20.7215C48.5848 20.7215 56.6874 29.0423 56.6874 39.2796" stroke="#0092C2" stroke-width="3" stroke-miterlimit="10"/>
</svg>
