<svg width="110" height="113" viewBox="0 0 110 113" fill="none" xmlns="http://www.w3.org/2000/svg">
<ellipse cx="55" cy="56.322" rx="55" ry="56.322" fill="#009E8C"/>
<path d="M46.7842 69.5676C58.2631 69.5676 67.5685 60.0386 67.5685 48.2838C67.5685 36.5291 58.2631 27 46.7842 27C35.3054 27 26 36.5291 26 48.2838C26 60.0386 35.3054 69.5676 46.7842 69.5676Z" fill="#009E8C" stroke="white" stroke-width="1.5" stroke-miterlimit="10"/>
<path d="M46.7841 64.705C55.6404 64.705 62.8198 57.353 62.8198 48.2838C62.8198 39.2146 55.6404 31.8625 46.7841 31.8625C37.9278 31.8625 30.7483 39.2146 30.7483 48.2838C30.7483 57.353 37.9278 64.705 46.7841 64.705Z" fill="#009E8C" stroke="white" stroke-width="1.5" stroke-miterlimit="10"/>
<path d="M62.9368 61.9814L66.1802 65.3029" stroke="white" stroke-width="1.5" stroke-miterlimit="10"/>
<path d="M63.3128 68.239L60.0693 64.9176" stroke="white" stroke-width="1.5" stroke-miterlimit="10"/>
<path d="M82.5795 85.0322C80.6853 86.972 77.6105 86.972 75.7033 85.0322L62.3142 69.4347L67.3481 64.2798L82.5795 77.9908C84.4737 79.9305 84.4737 83.0792 82.5795 85.0322Z" fill="#009E8C" stroke="white" stroke-width="1.5" stroke-miterlimit="10"/>
<path d="M46.7847 37.7349C52.4802 37.7349 57.086 42.4647 57.086 48.2838L46.7847 37.7349Z" fill="#009E8C"/>
<path d="M46.7847 37.7349C52.4802 37.7349 57.086 42.4647 57.086 48.2838" stroke="white" stroke-width="1.5" stroke-miterlimit="10"/>
</svg>
