<svg width="39" height="40" viewBox="0 0 39 40" fill="none" xmlns="http://www.w3.org/2000/svg">
<path d="M36.3056 1H2.27019C1.5819 1 1.02393 1.55797 1.02393 2.24626V29.1281C1.02393 29.8163 1.5819 30.3743 2.27019 30.3743H36.3056C36.9939 30.3743 37.5519 29.8163 37.5519 29.1281V2.24626C37.5519 1.55797 36.9939 1 36.3056 1Z" stroke="#170083" stroke-width="1.5" stroke-miterlimit="10"/>
<path d="M1 25.0154H37.5778" stroke="#170083" stroke-width="1.5" stroke-miterlimit="10"/>
<path d="M22.9227 30.5364V32.842C22.9227 34.0259 23.7452 35.0354 24.9042 35.2846L27.5837 35.8454C28.7427 36.0822 29.5652 37.1042 29.5652 38.2881V38.5H9.05176V38.2881C9.05176 37.1042 9.87429 36.0947 11.0333 35.8454L13.7128 35.2846C14.8718 35.0478 15.6943 34.0259 15.6943 32.842V30.5364" stroke="#170083" stroke-width="1.5" stroke-miterlimit="10"/>
<path d="M16.1647 17.5504C18.4774 17.5504 20.3522 15.6756 20.3522 13.363C20.3522 11.0503 18.4774 9.17554 16.1647 9.17554C13.8521 9.17554 11.9773 11.0503 11.9773 13.363C11.9773 15.6756 13.8521 17.5504 16.1647 17.5504Z" stroke="#170083" stroke-width="1.5" stroke-miterlimit="10"/>
<path d="M24.7051 15.3072V11.4189H22.736C22.599 10.9578 22.412 10.5091 22.1877 10.0854L23.5835 8.68958L20.8417 5.94781L19.4459 7.34362C19.0222 7.11929 18.586 6.93235 18.1124 6.79526V4.82617H14.2241V6.79526C13.763 6.93235 13.3143 7.11929 12.8906 7.34362L11.4948 5.94781L8.75298 8.68958L10.1488 10.0854C9.92447 10.5091 9.73753 10.9453 9.60044 11.4189H7.63135V15.3072H9.60044C9.73753 15.7683 9.92447 16.217 10.1488 16.6407L8.75298 18.0365L11.4948 20.7783L12.8906 19.3825C13.3143 19.6068 13.7505 19.7937 14.2241 19.9308V21.8999H18.1124V19.9308C18.5735 19.7937 19.0222 19.6068 19.4459 19.3825L20.8417 20.7783L23.5835 18.0365L22.1877 16.6407C22.412 16.217 22.599 15.7808 22.736 15.3072H24.7051Z" stroke="#170083" stroke-width="1.5" stroke-miterlimit="10"/>
<path d="M24.8286 13.3628H28.5051" stroke="#170083" stroke-width="1.5" stroke-miterlimit="10"/>
<path d="M29.7262 14.5845C30.4007 14.5845 30.9476 14.0377 30.9476 13.3632C30.9476 12.6887 30.4007 12.1418 29.7262 12.1418C29.0517 12.1418 28.5049 12.6887 28.5049 13.3632C28.5049 14.0377 29.0517 14.5845 29.7262 14.5845Z" stroke="#170083" stroke-width="1.5" stroke-miterlimit="10"/>
<path d="M29.7262 22.4856C30.4007 22.4856 30.9476 21.9388 30.9476 21.2643C30.9476 20.5898 30.4007 20.043 29.7262 20.043C29.0517 20.043 28.5049 20.5898 28.5049 21.2643C28.5049 21.9388 29.0517 22.4856 29.7262 22.4856Z" stroke="#170083" stroke-width="1.5" stroke-miterlimit="10"/>
<path d="M23.5713 18.0117H29.7278V20.0431" stroke="#170083" stroke-width="1.5" stroke-miterlimit="10"/>
<path d="M29.7262 6.65825C30.4007 6.65825 30.9476 6.11144 30.9476 5.43691C30.9476 4.76239 30.4007 4.21558 29.7262 4.21558C29.0517 4.21558 28.5049 4.76239 28.5049 5.43691C28.5049 6.11144 29.0517 6.65825 29.7262 6.65825Z" stroke="#170083" stroke-width="1.5" stroke-miterlimit="10"/>
<path d="M23.5713 8.70182H29.7278V6.65796" stroke="#170083" stroke-width="1.5" stroke-miterlimit="10"/>
<path d="M17.8145 27.7073H20.7681" stroke="#170083" stroke-width="1.5" stroke-miterlimit="10"/>
</svg>
