<svg width="60" height="63" viewBox="0 0 60 63" fill="none" xmlns="http://www.w3.org/2000/svg">
<path d="M56.9844 1.35791H3.0157C1.9243 1.35791 1.03955 2.26393 1.03955 3.38156V47.0317C1.03955 48.1493 1.9243 49.0554 3.0157 49.0554H56.9844C58.0757 49.0554 58.9605 48.1493 58.9605 47.0317V3.38156C58.9605 2.26393 58.0757 1.35791 56.9844 1.35791Z" stroke="white" stroke-width="1.42709" stroke-miterlimit="10"/>
<path d="M1 40.3538H59" stroke="white" stroke-width="1.42709" stroke-miterlimit="10"/>
<path d="M35.7607 49.3184V53.0621C35.7607 54.9846 37.0649 56.6237 38.9027 57.0285L43.1515 57.9391C44.9893 58.3236 46.2935 59.983 46.2935 61.9055V62.2495H13.7661V61.9055C13.7661 59.983 15.0704 58.3438 16.9082 57.9391L21.1569 57.0285C22.9947 56.644 24.299 54.9846 24.299 53.0621V49.3184" stroke="white" stroke-width="1.42709" stroke-miterlimit="10"/>
<path d="M25.05 28.2325C28.7171 28.2325 31.6899 25.1883 31.6899 21.433C31.6899 17.6778 28.7171 14.6335 25.05 14.6335C21.3829 14.6335 18.4102 17.6778 18.4102 21.433C18.4102 25.1883 21.3829 28.2325 25.05 28.2325Z" stroke="white" stroke-width="1.42709" stroke-miterlimit="10"/>
<path d="M38.5859 24.5897V18.2759H35.4636C35.2463 17.5272 34.9498 16.7986 34.5941 16.1106L36.8074 13.8441L32.4599 9.39209L30.2466 11.6586C29.5747 11.2943 28.8831 10.9908 28.1321 10.7682V7.5708H21.9665V10.7682C21.2354 10.9908 20.5239 11.2943 19.852 11.6586L17.6388 9.39209L13.2912 13.8441L15.5045 16.1106C15.1488 16.7986 14.8524 17.5069 14.635 18.2759H11.5127V24.5897H14.635C14.8524 25.3385 15.1488 26.067 15.5045 26.755L13.2912 29.0215L17.6388 33.4735L19.852 31.207C20.5239 31.5713 21.2156 31.8748 21.9665 32.0974V35.2948H28.1321V32.0974C28.8633 31.8748 29.5747 31.5713 30.2466 31.207L32.4599 33.4735L36.8074 29.0215L34.5941 26.755C34.9498 26.067 35.2463 25.3587 35.4636 24.5897H38.5859Z" stroke="white" stroke-width="1.42709" stroke-miterlimit="10"/>
<path d="M38.7842 21.4324H44.6138" stroke="white" stroke-width="1.42709" stroke-miterlimit="10"/>
<path d="M46.5499 23.4158C47.6195 23.4158 48.4865 22.5279 48.4865 21.4326C48.4865 20.3374 47.6195 19.4495 46.5499 19.4495C45.4803 19.4495 44.6133 20.3374 44.6133 21.4326C44.6133 22.5279 45.4803 23.4158 46.5499 23.4158Z" stroke="white" stroke-width="1.42709" stroke-miterlimit="10"/>
<path d="M46.5499 36.2457C47.6195 36.2457 48.4865 35.3578 48.4865 34.2625C48.4865 33.1672 47.6195 32.2793 46.5499 32.2793C45.4803 32.2793 44.6133 33.1672 44.6133 34.2625C44.6133 35.3578 45.4803 36.2457 46.5499 36.2457Z" stroke="white" stroke-width="1.42709" stroke-miterlimit="10"/>
<path d="M36.7881 28.9805H46.5503V32.279" stroke="white" stroke-width="1.42709" stroke-miterlimit="10"/>
<path d="M46.5499 10.5457C47.6195 10.5457 48.4865 9.6578 48.4865 8.56252C48.4865 7.46724 47.6195 6.57935 46.5499 6.57935C45.4803 6.57935 44.6133 7.46724 44.6133 8.56252C44.6133 9.6578 45.4803 10.5457 46.5499 10.5457Z" stroke="white" stroke-width="1.42709" stroke-miterlimit="10"/>
<path d="M36.7881 13.8642H46.5503V10.5454" stroke="white" stroke-width="1.42709" stroke-miterlimit="10"/>
<path d="M27.6587 44.7249H32.3422" stroke="white" stroke-width="1.42709" stroke-miterlimit="10"/>
</svg>
