<svg width="67" height="64" viewBox="0 0 67 64" fill="none" xmlns="http://www.w3.org/2000/svg">
<path d="M41.7438 22.1434C40.1492 21.2383 38.3047 20.7268 36.345 20.7268H35.9608C34.0011 20.7268 32.1567 21.2383 30.562 22.1434" stroke="white" stroke-width="1.43875" stroke-miterlimit="10"/>
<path d="M27.5452 39.6532C25.8737 37.6464 24.8555 35.0297 24.8555 32.1966C24.8555 29.3635 25.8545 26.7861 27.4876 24.7793" stroke="white" stroke-width="1.43875" stroke-miterlimit="10"/>
<path d="M30.1387 42.3491C31.7333 43.2541 33.5777 43.7657 35.5374 43.7657H35.9217C37.8814 43.7657 39.7258 43.2541 41.3205 42.3491" stroke="white" stroke-width="1.43875" stroke-miterlimit="10"/>
<path d="M44.3369 24.8384C46.0084 26.8452 47.0267 29.4619 47.0267 32.295C47.0267 35.1282 46.0276 37.7055 44.3945 39.7123" stroke="white" stroke-width="1.43875" stroke-miterlimit="10"/>
<path d="M57.8823 37.3124V27.0817H52.8102C52.4643 25.8619 51.984 24.6814 51.4076 23.5796L54.9812 19.9202L47.9301 12.6996L44.3566 16.3591C43.2807 15.7688 42.1279 15.277 40.9367 14.9228V9.72876H30.9653V14.9228C29.7741 15.277 28.6214 15.7688 27.5454 16.3591L23.9719 12.6996L16.9208 19.9202L20.4944 23.5796C19.918 24.6814 19.4377 25.8619 19.0919 27.0817H14.0005V37.3124H19.0726C19.4185 38.5323 19.8988 39.7127 20.4752 40.8145L16.9016 44.474L23.9527 51.6945L27.5262 48.0351C28.6021 48.6253 29.7549 49.1172 30.9461 49.4713V54.6654H40.9175V49.4713C42.1087 49.1172 43.2614 48.6253 44.3374 48.0351L47.9109 51.6945L54.962 44.474L51.3884 40.8145C51.9648 39.7127 52.4451 38.5323 52.7909 37.3124H57.8631H57.8823Z" stroke="white" stroke-width="1.43875" stroke-miterlimit="10"/>
<path d="M44.3754 22.2024H27.5259V28.9114H44.3754V22.2024Z" stroke="white" stroke-width="1.43875" stroke-miterlimit="10"/>
<path d="M33.6743 22.1431V28.8914" stroke="white" stroke-width="1.43875" stroke-miterlimit="10"/>
<path d="M30.1001 25.4878H30.9647" stroke="white" stroke-width="1.43875" stroke-miterlimit="10"/>
<path d="M36.1333 25.4878H42.3774" stroke="white" stroke-width="1.43875" stroke-miterlimit="10"/>
<path d="M44.3754 28.8914H27.5259V35.6004H44.3754V28.8914Z" stroke="white" stroke-width="1.43875" stroke-miterlimit="10"/>
<path d="M33.6743 28.8521V35.5807" stroke="white" stroke-width="1.43875" stroke-miterlimit="10"/>
<path d="M30.1001 32.177H30.9647" stroke="white" stroke-width="1.43875" stroke-miterlimit="10"/>
<path d="M36.1333 32.177H42.3774" stroke="white" stroke-width="1.43875" stroke-miterlimit="10"/>
<path d="M44.3754 35.5608H27.5259V42.2698H44.3754V35.5608Z" stroke="white" stroke-width="1.43875" stroke-miterlimit="10"/>
<path d="M33.6743 35.5022V42.2309" stroke="white" stroke-width="1.43875" stroke-miterlimit="10"/>
<path d="M30.1001 38.8472H30.9647" stroke="white" stroke-width="1.43875" stroke-miterlimit="10"/>
<path d="M36.1333 38.8472H42.3774" stroke="white" stroke-width="1.43875" stroke-miterlimit="10"/>
<path d="M6.50848 31.7214C6.22754 31.4405 5.77206 31.4405 5.49113 31.7214L0.91305 36.2995C0.632113 36.5804 0.632113 37.0359 0.91305 37.3168C1.19398 37.5978 1.64946 37.5978 1.9304 37.3168L5.9998 33.2474L10.0692 37.3168C10.3501 37.5978 10.8056 37.5978 11.0866 37.3168C11.3675 37.0359 11.3675 36.5804 11.0866 36.2995L6.50848 31.7214ZM11.0513 49.283L10.4489 49.6761L11.0513 49.283ZM24.5032 60.5881L24.7841 59.9258L24.5032 60.5881ZM41.8214 62.3348L41.965 63.0397L41.8214 62.3348ZM57.1686 53.9344L57.6833 54.437L57.1686 53.9344ZM65.3718 38.2183L64.6656 38.0811L65.3718 38.2183ZM63.6661 20.4838L64.333 20.2141L64.333 20.2141L63.6661 20.4838ZM52.6264 6.70859L53.0327 6.11489L52.6264 6.70859ZM5.28042 32.2301C5.28042 38.4394 7.07841 44.5106 10.4489 49.6761L11.6538 48.8899C8.43709 43.9601 6.71918 38.1624 6.71918 32.2301L5.28042 32.2301ZM10.4489 49.6761C13.8194 54.8418 18.6119 58.8706 24.2223 61.2503L24.7841 59.9258C19.4405 57.6592 14.8704 53.8196 11.6538 48.8899L10.4489 49.6761ZM24.2223 61.2503C29.8329 63.6302 36.0077 64.2531 41.965 63.0397L41.6778 61.6299C36.0064 62.7851 30.1276 62.1924 24.7841 59.9258L24.2223 61.2503ZM41.965 63.0397C47.9222 61.8262 53.3919 58.8315 57.6833 54.437L56.6539 53.4318C52.5614 57.6226 47.3494 60.4746 41.6778 61.6299L41.965 63.0397ZM57.6833 54.437C61.9745 50.0426 64.895 44.4459 66.078 38.3555L64.6656 38.0811C63.5356 43.899 60.7466 49.2407 56.6539 53.4318L57.6833 54.437ZM66.078 38.3555C67.261 32.2651 66.654 25.9521 64.333 20.2141L62.9992 20.7536C65.2156 26.2329 65.7957 32.2632 64.6656 38.0811L66.078 38.3555ZM64.333 20.2141C62.012 14.4759 58.0803 9.56871 53.0327 6.11489L52.2202 7.30228C57.0309 10.594 60.7829 15.2744 62.9992 20.7536L64.333 20.2141ZM53.0327 6.11489C47.9848 2.66092 42.0482 0.816263 35.9738 0.816262L35.9738 2.25501C41.7559 2.25501 47.4097 4.01075 52.2202 7.30228L53.0327 6.11489Z" fill="white"/>
<path d="M33.5514 1.48235C29.9491 1.48235 26.3822 2.20892 23.0541 3.62058C19.726 5.03225 16.7021 7.10135 14.1549 9.70977C11.6077 12.3182 9.58718 15.4148 8.20865 18.8229C6.83012 22.2309 6.12061 25.8837 6.12061 29.5725" stroke="white" stroke-width="1.43875" stroke-dasharray="2.4 2.4"/>
</svg>
