<svg width="48" height="44" viewBox="0 0 48 44" fill="none" xmlns="http://www.w3.org/2000/svg">
<path d="M30.5953 14.883C29.498 14.2749 28.2289 13.9312 26.8804 13.9312H26.616C25.2675 13.9312 23.9984 14.2749 22.9011 14.883" stroke="#582B99" stroke-width="1.5" stroke-miterlimit="10"/>
<path d="M20.8252 26.6488C19.675 25.3003 18.9744 23.542 18.9744 21.6383C18.9744 19.7346 19.6618 18.0028 20.7855 16.6543" stroke="#582B99" stroke-width="1.5" stroke-miterlimit="10"/>
<path d="M22.6099 28.4602C23.7071 29.0683 24.9763 29.4121 26.3247 29.4121H26.5891C27.9376 29.4121 29.2068 29.0683 30.304 28.4602" stroke="#582B99" stroke-width="1.5" stroke-miterlimit="10"/>
<path d="M32.3799 16.6941C33.53 18.0426 34.2307 19.8008 34.2307 21.7045C34.2307 23.6082 33.5433 25.3401 32.4195 26.6886" stroke="#582B99" stroke-width="1.5" stroke-miterlimit="10"/>
<path d="M41.7001 25.0757V18.2012H38.2099C37.972 17.3816 37.6415 16.5884 37.2449 15.848L39.7038 13.3891L34.852 8.53726L32.393 10.9962C31.6527 10.5996 30.8595 10.2691 30.0398 10.0311V6.54102H23.1786V10.0311C22.3589 10.2691 21.5657 10.5996 20.8254 10.9962L18.3664 8.53726L13.5146 13.3891L15.9736 15.848C15.5769 16.5884 15.2464 17.3816 15.0085 18.2012H11.5051V25.0757H14.9953C15.2332 25.8954 15.5637 26.6886 15.9603 27.4289L13.5014 29.8879L18.3532 34.7397L20.8121 32.2807C21.5525 32.6773 22.3457 33.0078 23.1653 33.2458V36.7359H30.0266V33.2458C30.8463 33.0078 31.6395 32.6773 32.3798 32.2807L34.8388 34.7397L39.6906 29.8879L37.2316 27.4289C37.6282 26.6886 37.9587 25.8954 38.1967 25.0757H41.6868H41.7001Z" stroke="#582B99" stroke-width="1.5" stroke-miterlimit="10"/>
<path d="M32.4061 14.9226H20.812V19.4307H32.4061V14.9226Z" stroke="#582B99" stroke-width="1.5" stroke-miterlimit="10"/>
<path d="M25.0425 14.8828V19.4173" stroke="#582B99" stroke-width="1.5" stroke-miterlimit="10"/>
<path d="M22.5835 17.1304H23.1784" stroke="#582B99" stroke-width="1.5" stroke-miterlimit="10"/>
<path d="M26.7346 17.1304H31.0312" stroke="#582B99" stroke-width="1.5" stroke-miterlimit="10"/>
<path d="M32.4061 19.4175H20.812V23.9256H32.4061V19.4175Z" stroke="#582B99" stroke-width="1.5" stroke-miterlimit="10"/>
<path d="M25.0425 19.3909V23.9122" stroke="#582B99" stroke-width="1.5" stroke-miterlimit="10"/>
<path d="M22.5835 21.625H23.1784" stroke="#582B99" stroke-width="1.5" stroke-miterlimit="10"/>
<path d="M26.7346 21.625H31.0312" stroke="#582B99" stroke-width="1.5" stroke-miterlimit="10"/>
<path d="M32.4061 23.8989H20.812V28.407H32.4061V23.8989Z" stroke="#582B99" stroke-width="1.5" stroke-miterlimit="10"/>
<path d="M25.0425 23.8596V28.3809" stroke="#582B99" stroke-width="1.5" stroke-miterlimit="10"/>
<path d="M22.5835 26.1069H23.1784" stroke="#582B99" stroke-width="1.5" stroke-miterlimit="10"/>
<path d="M26.7346 26.1069H31.0312" stroke="#582B99" stroke-width="1.5" stroke-miterlimit="10"/>
<path d="M6.53034 21.1306C6.23745 20.8377 5.76258 20.8377 5.46968 21.1306L0.696712 25.9035C0.403819 26.1964 0.403819 26.6713 0.696712 26.9642C0.989605 27.2571 1.46448 27.2571 1.75737 26.9642L6.00001 22.7216L10.2427 26.9642C10.5355 27.2571 11.0104 27.2571 11.3033 26.9642C11.5962 26.6713 11.5962 26.1964 11.3033 25.9035L6.53034 21.1306ZM9.47595 33.1195L8.85235 33.5362L8.85235 33.5362L9.47595 33.1195ZM18.7322 40.7159L18.4451 41.4088L18.7322 40.7159ZM30.6487 41.8896L30.7951 42.6252L30.7951 42.6252L30.6487 41.8896ZM41.2091 36.245L41.7394 36.7753L41.7394 36.7753L41.2091 36.245ZM46.8537 25.6846L46.1181 25.5383L46.1181 25.5383L46.8537 25.6846ZM45.68 13.7681L44.9871 14.0551L44.9871 14.0551L45.68 13.7681ZM38.0836 4.51186L37.667 5.13546L37.667 5.13546L38.0836 4.51186ZM5.25001 21.6609C5.25001 25.8885 6.50363 30.0211 8.85235 33.5362L10.0996 32.7029C7.91566 29.4344 6.75001 25.5918 6.75001 21.6609L5.25001 21.6609ZM8.85235 33.5362C11.2011 37.0513 14.5394 39.791 18.4451 41.4088L19.0192 40.023C15.3875 38.5187 12.2834 35.9713 10.0996 32.7029L8.85235 33.5362ZM18.4451 41.4088C22.3509 43.0266 26.6487 43.4499 30.7951 42.6252L30.5024 41.154C26.6471 41.9209 22.6509 41.5273 19.0192 40.023L18.4451 41.4088ZM30.7951 42.6252C34.9414 41.8004 38.7501 39.7646 41.7394 36.7753L40.6787 35.7146C37.8992 38.4942 34.3578 40.3871 30.5024 41.154L30.7951 42.6252ZM41.7394 36.7753C44.7288 33.786 46.7645 29.9773 47.5893 25.831L46.1181 25.5383C45.3512 29.3937 43.4583 32.9351 40.6787 35.7146L41.7394 36.7753ZM47.5893 25.831C48.414 21.6846 47.9908 17.3868 46.3729 13.4811L44.9871 14.0551C46.4914 17.6868 46.885 21.683 46.1181 25.5383L47.5893 25.831ZM46.3729 13.4811C44.7551 9.57528 42.0154 6.23697 38.5003 3.88825L37.667 5.13546C40.9354 7.31935 43.4828 10.4234 44.9871 14.0551L46.3729 13.4811ZM38.5003 3.88825C34.9852 1.53954 30.8526 0.285918 26.625 0.285917L26.625 1.78592C30.5559 1.78592 34.3985 2.95156 37.667 5.13546L38.5003 3.88825Z" fill="#582B99"/>
<path d="M24.9583 0.999967C22.4796 0.999967 20.0252 1.48818 17.7351 2.43674C15.4451 3.3853 13.3643 4.77563 11.6116 6.52834C9.85891 8.28105 8.46859 10.3618 7.52003 12.6518C6.57147 14.9419 6.08325 17.3963 6.08325 19.875" stroke="#582B99" stroke-width="1.5" stroke-dasharray="1.65 1.65"/>
</svg>
