<svg width="48" height="40" viewBox="0 0 48 40" fill="none" xmlns="http://www.w3.org/2000/svg">
<path d="M1.27075 38.3979H47.25" stroke="#0069CA" stroke-width="2" stroke-miterlimit="10"/>
<path d="M1.67578 32.7062C10.6258 32.7062 12.2609 7.74951 24.3212 7.74951C36.3938 7.74951 38.0166 32.7062 46.9666 32.7062" stroke="#0069CA" stroke-width="2" stroke-miterlimit="10"/>
<path d="M26.6575 4.04883H40.1931" stroke="#0069CA" stroke-width="2" stroke-miterlimit="10"/>
<path d="M43.1187 7.09779C44.8026 7.09779 46.1676 5.73275 46.1676 4.04889C46.1676 2.36504 44.8026 1 43.1187 1C41.4349 1 40.0698 2.36504 40.0698 4.04889C40.0698 5.73275 41.4349 7.09779 43.1187 7.09779Z" stroke="#0069CA" stroke-width="2" stroke-miterlimit="10"/>
<path d="M18.8615 21.6785H6.96265" stroke="#0069CA" stroke-width="2" stroke-miterlimit="10"/>
<path d="M4.04889 24.7274C5.73275 24.7274 7.09779 23.3624 7.09779 21.6785C7.09779 19.9947 5.73275 18.6296 4.04889 18.6296C2.36504 18.6296 1 19.9947 1 21.6785C1 23.3624 2.36504 24.7274 4.04889 24.7274Z" stroke="#0069CA" stroke-width="2" stroke-miterlimit="10"/>
<path d="M24.125 36.0043L24.125 10.7092" stroke="#0069CA" stroke-width="2" stroke-miterlimit="10" stroke-dasharray="1.85 1.85"/>
<path d="M32.833 36.0043L32.833 18.1587" stroke="#0069CA" stroke-width="2" stroke-miterlimit="10" stroke-dasharray="1.85 1.85"/>
<path d="M15.417 36.0043L15.417 18.1587" stroke="#0069CA" stroke-width="2" stroke-miterlimit="10" stroke-dasharray="1.85 1.85"/>
<path d="M41.541 36.0044L41.541 32.7061" stroke="#0069CA" stroke-width="2" stroke-miterlimit="10" stroke-dasharray="1.85 1.85"/>
<path d="M6.70898 36.0044L6.70898 32.7061" stroke="#0069CA" stroke-width="2" stroke-miterlimit="10" stroke-dasharray="1.85 1.85"/>
</svg>
