<svg width="81" height="68" viewBox="0 0 81 68" fill="none" xmlns="http://www.w3.org/2000/svg">
<path d="M1.46338 66.7761H80.1489" stroke="white" stroke-width="1.89957" stroke-miterlimit="10"/>
<path d="M2.15674 56.8012C17.4731 56.8012 20.2712 13.0657 40.9104 13.0657C61.5706 13.0657 64.3477 56.8012 79.6641 56.8012" stroke="white" stroke-width="1.89957" stroke-miterlimit="10"/>
<path d="M44.9087 6.58081H68.0725" stroke="white" stroke-width="1.89957" stroke-miterlimit="10"/>
<path d="M73.079 11.9239C75.9606 11.9239 78.2966 9.53175 78.2966 6.58086C78.2966 3.62996 75.9606 1.23779 73.079 1.23779C70.1973 1.23779 67.8613 3.62996 67.8613 6.58086C67.8613 9.53175 70.1973 11.9239 73.079 11.9239Z" stroke="white" stroke-width="1.89957" stroke-miterlimit="10"/>
<path d="M31.5669 37.4758H11.2041" stroke="white" stroke-width="1.89957" stroke-miterlimit="10"/>
<path d="M6.21765 42.8189C9.09928 42.8189 11.4353 40.4268 11.4353 37.4759C11.4353 34.525 9.09928 32.1328 6.21765 32.1328C3.33602 32.1328 1 34.525 1 37.4759C1 40.4268 3.33602 42.8189 6.21765 42.8189Z" stroke="white" stroke-width="1.89957" stroke-miterlimit="10"/>
<path d="M40.5742 62.5815L40.5742 18.2529" stroke="white" stroke-width="1.89957" stroke-miterlimit="10" stroke-dasharray="3.17 3.17"/>
<path d="M55.4766 62.5814L55.4766 31.3076" stroke="white" stroke-width="1.89957" stroke-miterlimit="10" stroke-dasharray="3.17 3.17"/>
<path d="M25.6719 62.5814L25.6719 31.3076" stroke="white" stroke-width="1.89957" stroke-miterlimit="10" stroke-dasharray="3.17 3.17"/>
<path d="M70.3789 62.5816L70.3789 56.8013" stroke="white" stroke-width="1.89957" stroke-miterlimit="10" stroke-dasharray="3.17 3.17"/>
<path d="M10.77 62.5816L10.77 56.8013" stroke="white" stroke-width="1.89957" stroke-miterlimit="10" stroke-dasharray="3.17 3.17"/>
</svg>
