<svg width="128" height="131" viewBox="0 0 128 131" fill="none" xmlns="http://www.w3.org/2000/svg">
<path d="M44.8707 114.447H1.5V129.276H44.8707V114.447Z" stroke="black" stroke-width="3" stroke-miterlimit="10"/>
<path d="M72.085 99.3342H28.7144V114.164H72.085V99.3342Z" stroke="black" stroke-width="3" stroke-miterlimit="10"/>
<path d="M99.2847 84.2216H55.9141V99.0511H99.2847V84.2216Z" stroke="black" stroke-width="3" stroke-miterlimit="10"/>
<path d="M126.5 69.1238H83.1294V83.9533H126.5V69.1238Z" stroke="black" stroke-width="3" stroke-miterlimit="10"/>
<path d="M104.785 26.3195V68.8257" stroke="black" stroke-width="3" stroke-miterlimit="10"/>
<path d="M80.73 36.7374L104.755 47.1702V26.3195L80.73 36.7374Z" stroke="black" stroke-width="3" stroke-miterlimit="10"/>
<path d="M58.463 21.6055C61.5168 21.6055 63.9924 19.1299 63.9924 16.0761C63.9924 13.0223 61.5168 10.5468 58.463 10.5468C55.4092 10.5468 52.9336 13.0223 52.9336 16.0761C52.9336 19.1299 55.4092 21.6055 58.463 21.6055Z" stroke="black" stroke-width="3" stroke-miterlimit="10"/>
<path d="M69.5963 16.0761C69.5963 15.793 69.5814 15.5098 69.5516 15.2266L73.2776 13.1549L68.7617 5.01736L65.0357 7.08902C64.4395 6.6568 63.7986 6.2693 63.128 5.95631V1.72357H53.8279V5.97122C53.1423 6.2842 52.5163 6.6568 51.9201 7.10392L48.1941 5.03226L43.6782 13.1699L47.4042 15.2415C47.3893 15.5247 47.3595 15.8079 47.3595 16.091C47.3595 16.5531 47.4042 17.0151 47.4489 17.4622L43.8422 19.7127L48.7456 27.6118L52.3524 25.3762C52.8293 25.6892 53.3211 25.9575 53.8428 26.196V30.4436H63.1429V26.196C63.6645 25.9575 64.1563 25.6892 64.6333 25.3762L68.24 27.6118L73.1435 19.7127L69.5367 17.4622C69.5963 17.0151 69.6261 16.5531 69.6261 16.091L69.5963 16.0761Z" stroke="black" stroke-width="3" stroke-miterlimit="10"/>
<path d="M35.7498 99.1256V81.6879C35.7498 80.9427 35.1984 80.3167 34.4532 80.2124L22.2915 78.5729V114.387" stroke="black" stroke-width="3" stroke-miterlimit="10"/>
<path d="M12.7676 50.4044V114.313" stroke="black" stroke-width="3" stroke-miterlimit="10"/>
<path d="M12.6481 78.5581H8.28126C5.8072 78.5581 3.81006 76.5609 3.81006 74.0869V48.2582C3.81006 43.325 7.81924 39.3158 12.7525 39.3158H61.0564C63.3665 39.3158 65.2295 41.1788 65.2295 43.4889C65.2295 45.799 63.3665 47.662 61.0564 47.662H34.4527V68.3488L42.8139 69.7945C44.2446 70.0479 45.2879 71.2849 45.2879 72.7306V98.6189" stroke="black" stroke-width="3" stroke-miterlimit="10"/>
<path d="M24.2582 39.1072C29.7896 39.1072 34.2737 34.6231 34.2737 29.0917C34.2737 23.5603 29.7896 19.0762 24.2582 19.0762C18.7268 19.0762 14.2427 23.5603 14.2427 29.0917C14.2427 34.6231 18.7268 39.1072 24.2582 39.1072Z" stroke="black" stroke-width="3" stroke-miterlimit="10"/>
</svg>
