<svg width="110" height="113" viewBox="0 0 110 113" fill="none" xmlns="http://www.w3.org/2000/svg">
<ellipse cx="55" cy="56.322" rx="55" ry="56.322" fill="#170083"/>
<path d="M47.471 77.0131H27V84.1809H47.471V77.0131Z" stroke="white" stroke-width="1.416" stroke-miterlimit="10"/>
<path d="M60.3162 69.7085H39.8452V76.8763H60.3162V69.7085Z" stroke="white" stroke-width="1.416" stroke-miterlimit="10"/>
<path d="M73.1546 62.4038H52.6836V69.5716H73.1546V62.4038Z" stroke="white" stroke-width="1.416" stroke-miterlimit="10"/>
<path d="M86.0003 55.1064H65.5293V62.2742H86.0003V55.1064Z" stroke="white" stroke-width="1.416" stroke-miterlimit="10"/>
<path d="M75.7505 34.4171V54.9623" stroke="white" stroke-width="1.416" stroke-miterlimit="10"/>
<path d="M64.3965 39.4526L75.7364 44.4952V34.4171L64.3965 39.4526Z" stroke="white" stroke-width="1.416" stroke-miterlimit="10"/>
<path d="M53.8867 32.1387C55.3281 32.1387 56.4966 30.9421 56.4966 29.4661C56.4966 27.99 55.3281 26.7935 53.8867 26.7935C52.4453 26.7935 51.2769 27.99 51.2769 29.4661C51.2769 30.9421 52.4453 32.1387 53.8867 32.1387Z" stroke="white" stroke-width="1.416" stroke-miterlimit="10"/>
<path d="M59.1415 29.4661C59.1415 29.3292 59.1345 29.1923 59.1204 29.0554L60.8791 28.0541L58.7476 24.1208L56.9889 25.1222C56.7075 24.9133 56.405 24.726 56.0885 24.5747V22.5288H51.6988V24.5819C51.3752 24.7332 51.0798 24.9133 50.7984 25.1294L49.0397 24.128L46.9082 28.0613L48.6669 29.0626C48.6598 29.1995 48.6458 29.3364 48.6458 29.4733C48.6458 29.6966 48.6669 29.9199 48.688 30.136L46.9856 31.2238L49.3 35.0418L51.0024 33.9612C51.2275 34.1125 51.4596 34.2422 51.7059 34.3574V36.4105H56.0955V34.3574C56.3417 34.2422 56.5739 34.1125 56.799 33.9612L58.5014 35.0418L60.8158 31.2238L59.1134 30.136C59.1415 29.9199 59.1556 29.6966 59.1556 29.4733L59.1415 29.4661Z" stroke="white" stroke-width="1.416" stroke-miterlimit="10"/>
<path d="M43.1658 69.6076V61.1792C43.1658 60.819 42.9055 60.5164 42.5538 60.466L36.8135 59.6736V76.9843" stroke="white" stroke-width="1.416" stroke-miterlimit="10"/>
<path d="M32.3184 46.0585V76.9483" stroke="white" stroke-width="1.416" stroke-miterlimit="10"/>
<path d="M32.2619 59.6664H30.2007C29.033 59.6664 28.0903 58.7011 28.0903 57.5053V45.0211C28.0903 42.6367 29.9827 40.6989 32.3111 40.6989H55.1106C56.201 40.6989 57.0803 41.5993 57.0803 42.7159C57.0803 43.8325 56.201 44.733 55.1106 44.733H42.5537V54.7318L46.5001 55.4306C47.1755 55.5531 47.6679 56.151 47.6679 56.8497V69.3627" stroke="white" stroke-width="1.416" stroke-miterlimit="10"/>
<path d="M37.742 40.598C40.3528 40.598 42.4693 38.4306 42.4693 35.757C42.4693 33.0834 40.3528 30.9161 37.742 30.9161C35.1311 30.9161 33.0146 33.0834 33.0146 35.757C33.0146 38.4306 35.1311 40.598 37.742 40.598Z" stroke="white" stroke-width="1.416" stroke-miterlimit="10"/>
</svg>
