<svg width="49" height="51" viewBox="0 0 49 51" fill="none" xmlns="http://www.w3.org/2000/svg">
<path d="M17.2703 44.3032H1V50H17.2703V44.3032Z" stroke="#170083" stroke-width="1.12562" stroke-miterlimit="10"/>
<path d="M27.4823 38.4976H11.2119V44.1944H27.4823V38.4976Z" stroke="#170083" stroke-width="1.12562" stroke-miterlimit="10"/>
<path d="M37.6898 32.692H21.4194V38.3888H37.6898V32.692Z" stroke="#170083" stroke-width="1.12562" stroke-miterlimit="10"/>
<path d="M47.8924 26.8922H31.6221V32.589H47.8924V26.8922Z" stroke="#170083" stroke-width="1.12562" stroke-miterlimit="10"/>
<path d="M39.7495 10.4486V26.7776" stroke="#170083" stroke-width="1.12562" stroke-miterlimit="10"/>
<path d="M30.7236 14.4507L39.7366 18.4585V10.4486L30.7236 14.4507Z" stroke="#170083" stroke-width="1.12562" stroke-miterlimit="10"/>
<path d="M22.3712 8.63769C23.5168 8.63769 24.4455 7.68668 24.4455 6.51355C24.4455 5.34042 23.5168 4.3894 22.3712 4.3894C21.2256 4.3894 20.2969 5.34042 20.2969 6.51355C20.2969 7.68668 21.2256 8.63769 22.3712 8.63769Z" stroke="#170083" stroke-width="1.12562" stroke-miterlimit="10"/>
<path d="M26.5478 6.51362C26.5478 6.40483 26.5422 6.29605 26.531 6.18727L27.9288 5.39143L26.2347 2.26533L24.8369 3.06116C24.6132 2.89513 24.3728 2.74626 24.1212 2.62603V1H20.6323V2.63176C20.3751 2.75199 20.1403 2.89513 19.9166 3.06689L18.5188 2.27105L16.8247 5.39715L18.2225 6.19299C18.2169 6.30177 18.2057 6.41056 18.2057 6.51934C18.2057 6.69683 18.2225 6.87432 18.2393 7.04608L16.8862 7.91063L18.7257 10.9451L20.0788 10.0863C20.2577 10.2065 20.4422 10.3096 20.6379 10.4012V12.033H24.1268V10.4012C24.3225 10.3096 24.507 10.2065 24.6859 10.0863L26.039 10.9451L27.8785 7.91063L26.5254 7.04608C26.5478 6.87432 26.559 6.69683 26.559 6.51934L26.5478 6.51362Z" stroke="#170083" stroke-width="1.12562" stroke-miterlimit="10"/>
<path d="M13.8486 38.4174V31.7187C13.8486 31.4324 13.6418 31.1919 13.3622 31.1518L8.7998 30.522V44.2803" stroke="#170083" stroke-width="1.12562" stroke-miterlimit="10"/>
<path d="M5.23047 19.701V44.2517" stroke="#170083" stroke-width="1.12562" stroke-miterlimit="10"/>
<path d="M5.18276 30.5164H3.54454C2.61641 30.5164 1.86719 29.7492 1.86719 28.7988V18.8766C1.86719 16.9814 3.37122 15.4413 5.2219 15.4413H23.3429C24.2096 15.4413 24.9084 16.157 24.9084 17.0444C24.9084 17.9319 24.2096 18.6475 23.3429 18.6475H13.3627V26.5945L16.4993 27.1498C17.0361 27.2472 17.4274 27.7224 17.4274 28.2778V38.2229" stroke="#170083" stroke-width="1.12562" stroke-miterlimit="10"/>
<path d="M9.53657 15.3611C11.6117 15.3611 13.2938 13.6385 13.2938 11.5136C13.2938 9.38866 11.6117 7.66608 9.53657 7.66608C7.46149 7.66608 5.7793 9.38866 5.7793 11.5136C5.7793 13.6385 7.46149 15.3611 9.53657 15.3611Z" stroke="#170083" stroke-width="1.12562" stroke-miterlimit="10"/>
</svg>
