<svg width="110" height="113" viewBox="0 0 110 113" fill="none" xmlns="http://www.w3.org/2000/svg">
<ellipse cx="55" cy="56.322" rx="55" ry="56.322" fill="#582B99"/>
<path d="M73.3225 26C73.3225 26 74.0624 64.8955 54.921 64.8955C35.7903 64.8955 36.5195 26 36.5195 26H73.3225Z" stroke="white" stroke-width="1.5" stroke-miterlimit="10"/>
<path d="M73.0865 32.1825H36.7661" stroke="white" stroke-width="1.5" stroke-miterlimit="10"/>
<path d="M37.0024 36.6738H30C30 36.6738 30.8793 55.0234 41.5921 55.0234" stroke="white" stroke-width="1.5" stroke-miterlimit="10"/>
<path d="M72.8402 36.6738H79.8533C79.8533 36.6738 78.974 55.0234 68.2612 55.0234" stroke="white" stroke-width="1.5" stroke-miterlimit="10"/>
<path d="M48.6697 77.1067H61.184C63.7148 77.1067 65.7629 79.2041 65.7629 81.7957H44.0908C44.0908 79.2041 46.139 77.1067 48.6697 77.1067Z" stroke="white" stroke-width="1.5" stroke-miterlimit="10"/>
<path d="M43.9088 81.8505H65.9348C68.8302 81.8505 71.1786 84.2554 71.1786 87.2203V87.9999H38.6758V87.2203C38.6758 84.2554 41.0242 81.8505 43.9196 81.8505H43.9088Z" stroke="white" stroke-width="1.5" stroke-miterlimit="10"/>
<path d="M50.3745 77.0627V63.9951" stroke="white" stroke-width="1.5" stroke-miterlimit="10"/>
<path d="M59.4792 77.0627V63.9951" stroke="white" stroke-width="1.5" stroke-miterlimit="10"/>
<path d="M54.9213 57.582C60.5061 57.582 65.0335 52.9458 65.0335 47.2267C65.0335 41.5076 60.5061 36.8714 54.9213 36.8714C49.3365 36.8714 44.8091 41.5076 44.8091 47.2267C44.8091 52.9458 49.3365 57.582 54.9213 57.582Z" stroke="white" stroke-width="1.5" stroke-miterlimit="10"/>
<path d="M54.9215 42.2523L56.4979 45.5247L60.0259 46.0518L57.4737 48.5994L58.0849 52.1903L54.9215 50.4992L51.7688 52.1903L52.3693 48.5994L49.8171 46.0518L53.3452 45.5247L54.9215 42.2523Z" stroke="white" stroke-width="1.5" stroke-miterlimit="10"/>
</svg>
