<svg width="87" height="108" viewBox="0 0 87 108" fill="none" xmlns="http://www.w3.org/2000/svg">
<path d="M74.127 2.44598C74.127 2.44598 75.3589 67.2021 43.4909 67.2021C11.6407 67.2021 12.8547 2.44598 12.8547 2.44598H74.127Z" stroke="#582B99" stroke-width="3" stroke-miterlimit="10"/>
<path d="M73.7345 12.739H13.2656" stroke="#582B99" stroke-width="3" stroke-miterlimit="10"/>
<path d="M13.6582 20.2164H2C2 20.2164 3.46397 50.7663 21.2993 50.7663" stroke="#582B99" stroke-width="3" stroke-miterlimit="10"/>
<path d="M73.324 20.2164H85C85 20.2164 83.5361 50.7663 65.7007 50.7663" stroke="#582B99" stroke-width="3" stroke-miterlimit="10"/>
<path d="M33.0828 87.5322H53.9175C58.1309 87.5322 61.5409 91.0241 61.5409 95.3387H25.4595C25.4595 91.0241 28.8694 87.5322 33.0828 87.5322Z" stroke="#582B99" stroke-width="3" stroke-miterlimit="10"/>
<path d="M25.1562 95.4301H61.8268C66.6471 95.4301 70.557 99.434 70.557 104.37V105.668H16.4438V104.37C16.4438 99.434 20.3537 95.4301 25.1741 95.4301H25.1562Z" stroke="#582B99" stroke-width="3" stroke-miterlimit="10"/>
<path d="M35.9209 87.459V65.703" stroke="#582B99" stroke-width="3" stroke-miterlimit="10"/>
<path d="M51.0791 87.459V65.703" stroke="#582B99" stroke-width="3" stroke-miterlimit="10"/>
<path d="M43.4914 55.0261C52.7894 55.0261 60.327 47.3073 60.327 37.7858C60.327 28.2643 52.7894 20.5455 43.4914 20.5455C34.1933 20.5455 26.6558 28.2643 26.6558 37.7858C26.6558 47.3073 34.1933 55.0261 43.4914 55.0261Z" stroke="#582B99" stroke-width="3" stroke-miterlimit="10"/>
<path d="M43.4908 29.5038L46.1152 34.952L51.989 35.8295L47.7399 40.0711L48.7575 46.0494L43.4908 43.2339L38.242 46.0494L39.2417 40.0711L34.9927 35.8295L40.8664 34.952L43.4908 29.5038Z" stroke="#582B99" stroke-width="3" stroke-miterlimit="10"/>
</svg>
