<svg width="107" height="106" viewBox="0 0 107 106" fill="none" xmlns="http://www.w3.org/2000/svg">
<path d="M49.229 52.7749L26.4023 105.22" stroke="#D266D3" stroke-width="3" stroke-miterlimit="10"/>
<path d="M76.5647 105.22L53.7568 52.7749" stroke="#D266D3" stroke-width="3" stroke-miterlimit="10"/>
<path d="M65.311 79.5363H37.6748" stroke="#D266D3" stroke-width="3" stroke-miterlimit="10"/>
<path d="M51.484 53.3328C54.4515 53.3328 56.8572 50.8693 56.8572 47.8305C56.8572 44.7916 54.4515 42.3281 51.484 42.3281C48.5165 42.3281 46.1108 44.7916 46.1108 47.8305C46.1108 50.8693 48.5165 53.3328 51.484 53.3328Z" stroke="#D266D3" stroke-width="3" stroke-miterlimit="10"/>
<path d="M46.0914 49.6775L22.4194 58.1426L15.1675 36.8643L53.4937 23.1662" stroke="#D266D3" stroke-width="3" stroke-miterlimit="10"/>
<path d="M60.7649 44.4445L56.3311 46.0221" stroke="#D266D3" stroke-width="3" stroke-miterlimit="10"/>
<path d="M10.1595 38.6604L2 41.5767L9.24956 62.8472L17.409 59.9309L10.1595 38.6604Z" stroke="#D266D3" stroke-width="3" stroke-miterlimit="10"/>
<path d="M92.0076 38.2495L62.3799 48.8501L52.0845 18.6643L81.7309 8.0636" stroke="#D266D3" stroke-width="3" stroke-miterlimit="10"/>
<path d="M87.744 2.26453L80.7729 4.75604L93.291 41.4844L100.262 38.9929L87.744 2.26453Z" stroke="#D266D3" stroke-width="3" stroke-miterlimit="10"/>
<path d="M11.3916 41.9049L16.0697 40.2311" stroke="#D266D3" stroke-width="3" stroke-miterlimit="10"/>
<path d="M21.067 54.9297L16.4077 56.5842" stroke="#D266D3" stroke-width="3" stroke-miterlimit="10"/>
<path d="M88.8521 3.81178C93.4362 2.17647 99.6923 8.29445 102.811 17.4714C105.93 26.6484 104.765 35.4213 100.181 37.0567" stroke="#D266D3" stroke-width="3" stroke-miterlimit="10"/>
</svg>
